<svg width="26" height="26" viewBox="0 0 26 26" fill="none" xmlns="http://www.w3.org/2000/svg">
<path d="M4.0181 4.01809C5.96435 2.07184 8.55199 1 11.3043 1C14.0567 1 16.6443 2.07184 18.5905 4.01809C20.5368 5.9643 21.6086 8.55194 21.6086 11.3043C21.6086 13.8206 20.7122 16.199 19.0712 18.0757L24.7938 23.7984C25.0687 24.0733 25.0687 24.5189 24.7938 24.7938C24.6564 24.9312 24.4763 25 24.2962 25C24.1161 25 23.9359 24.9313 23.7985 24.7938L18.0758 19.0712C16.1991 20.7121 13.8207 21.6086 11.3043 21.6086C8.55194 21.6086 5.9644 20.5368 4.01815 18.5905C2.07195 16.6443 1.0001 14.0567 1.0001 11.3043C1.0001 8.55194 2.0719 5.9643 4.0181 4.01809ZM5.01354 17.5951C8.48233 21.0639 14.1263 21.0639 17.5951 17.5951C21.0639 14.1264 21.0639 8.48228 17.5951 5.01353C15.8605 3.27897 13.5828 2.41197 11.3043 2.41197C9.02637 2.41197 6.74768 3.27939 5.01349 5.01353C1.54484 8.48223 1.54484 14.1263 5.01354 17.5951Z" fill="#666666" stroke="#666666"/>
</svg>
