<svg width="10" height="22" viewBox="0 0 10 22" fill="none" xmlns="http://www.w3.org/2000/svg">
<g clip-path="url(#clip0_1_671)">
<path d="M5.00074 19.8502C4.82152 19.8502 4.64232 19.7818 4.50568 19.6452L0.205904 15.3454C-0.0676175 15.0718 -0.0676175 14.6284 0.205904 14.355C0.479315 14.0815 0.922696 14.0815 1.19624 14.355L5.00074 18.1597L8.80525 14.3551C9.07878 14.0817 9.52211 14.0817 9.7955 14.3551C10.0692 14.6285 10.0692 15.072 9.7955 15.3455L5.49579 19.6453C5.35909 19.7819 5.17989 19.8502 5.00074 19.8502Z" fill="#999999"/>
</g>
<g clip-path="url(#clip1_1_671)">
<path d="M5.00074 2.14982C4.82152 2.14982 4.64232 2.21825 4.50568 2.35482L0.205904 6.65464C-0.0676175 6.92816 -0.0676175 7.37163 0.205904 7.64504C0.479315 7.91845 0.922696 7.91845 1.19624 7.64504L5.00074 3.84032L8.80525 7.64491C9.07878 7.91832 9.52211 7.91832 9.7955 7.64491C10.0692 7.3715 10.0692 6.92803 9.7955 6.65451L5.49579 2.35469C5.35909 2.21809 5.17989 2.14982 5.00074 2.14982Z" fill="#999999"/>
</g>
<defs>
<clipPath id="clip0_1_671">
<rect width="10" height="10" fill="white" transform="translate(0 12)"/>
</clipPath>
<clipPath id="clip1_1_671">
<rect width="10" height="10" fill="white" transform="matrix(1 0 0 -1 0 10)"/>
</clipPath>
</defs>
</svg>
