<svg width="220" height="43" viewBox="0 0 220 43" fill="none" xmlns="http://www.w3.org/2000/svg">
<path d="M64.4808 11.3304C64.4063 10.5789 64.0864 9.99504 63.5212 9.57889C62.956 9.16274 62.1889 8.95467 61.22 8.95467C60.5616 8.95467 60.0057 9.04784 59.5523 9.23417C59.0989 9.41429 58.7511 9.66585 58.5088 9.98882C58.2728 10.3118 58.1548 10.6783 58.1548 11.0882C58.1424 11.4298 58.2138 11.7279 58.3691 11.9826C58.5306 12.2373 58.7511 12.4578 59.0306 12.6441C59.3101 12.8242 59.633 12.9826 59.9995 13.1192C60.366 13.2497 60.7573 13.3615 61.1734 13.4546L62.8877 13.8646C63.72 14.0509 64.4839 14.2994 65.1796 14.6099C65.8752 14.9205 66.4777 15.3025 66.987 15.7559C67.4963 16.2093 67.8907 16.7434 68.1702 17.3583C68.456 17.9732 68.6019 18.6782 68.6081 19.4732C68.6019 20.6409 68.3038 21.6533 67.7137 22.5105C67.1299 23.3614 66.2852 24.0229 65.1796 24.4949C64.0802 24.9608 62.7541 25.1937 61.2014 25.1937C59.661 25.1937 58.3194 24.9577 57.1765 24.4856C56.0399 24.0136 55.1517 23.3148 54.512 22.3894C53.8784 21.4577 53.5461 20.3055 53.5151 18.9329H57.4188C57.4623 19.5726 57.6455 20.1068 57.9685 20.5353C58.2977 20.9577 58.7355 21.2776 59.2821 21.495C59.8349 21.7061 60.4591 21.8117 61.1548 21.8117C61.838 21.8117 62.4312 21.7123 62.9343 21.5136C63.4436 21.3148 63.838 21.0384 64.1175 20.6844C64.397 20.3304 64.5367 19.9235 64.5367 19.4639C64.5367 19.0353 64.4094 18.6751 64.1548 18.3832C63.9063 18.0913 63.5398 17.8428 63.0554 17.6378C62.5771 17.4329 61.9902 17.2465 61.2945 17.0788L59.2169 16.5571C57.6082 16.1658 56.338 15.554 55.4064 14.7217C54.4747 13.8894 54.012 12.7683 54.0182 11.3584C54.012 10.2031 54.3194 9.1938 54.9405 8.33045C55.5679 7.4671 56.4281 6.7932 57.5213 6.30873C58.6144 5.82426 59.8566 5.58202 61.2479 5.58202C62.6641 5.58202 63.9001 5.82426 64.956 6.30873C66.0181 6.7932 66.8442 7.4671 67.4342 8.33045C68.0243 9.1938 68.3286 10.1938 68.3473 11.3304H64.4808Z" fill="#333333"/>
<path d="M75.3278 25.1937C74.4148 25.1937 73.6011 25.0353 72.8868 24.7185C72.1726 24.3956 71.6073 23.9204 71.1912 23.2931C70.7813 22.6595 70.5763 21.8707 70.5763 20.9266C70.5763 20.1316 70.7222 19.4639 71.0142 18.9235C71.3061 18.3832 71.7036 17.9484 72.2067 17.6192C72.7098 17.29 73.2812 17.0416 73.921 16.8739C74.5669 16.7062 75.244 16.5882 75.952 16.5198C76.7843 16.4329 77.4551 16.3521 77.9644 16.2776C78.4737 16.1969 78.8433 16.0788 79.0731 15.9236C79.3029 15.7683 79.4178 15.5385 79.4178 15.2341V15.1782C79.4178 14.5882 79.2315 14.1317 78.8588 13.8087C78.4924 13.4857 77.9706 13.3242 77.2936 13.3242C76.5794 13.3242 76.011 13.4826 75.5887 13.7994C75.1663 14.1099 74.8868 14.5012 74.7502 14.9733L71.0794 14.6751C71.2657 13.8056 71.6322 13.054 72.1788 12.4205C72.7253 11.7807 73.4303 11.2901 74.2937 10.9484C75.1632 10.6006 76.1694 10.4267 77.3123 10.4267C78.1073 10.4267 78.8682 10.5199 79.5949 10.7062C80.3278 10.8925 80.9768 11.1814 81.542 11.5727C82.1135 11.964 82.5638 12.4671 82.893 13.082C83.2222 13.6907 83.3868 14.4205 83.3868 15.2714V24.9235H79.6228V22.939H79.511C79.2812 23.3862 78.9737 23.7807 78.5887 24.1223C78.2036 24.4577 77.7408 24.7216 77.2005 24.9142C76.6601 25.1005 76.0359 25.1937 75.3278 25.1937ZM76.4644 22.4546C77.0483 22.4546 77.5638 22.3397 78.011 22.1099C78.4582 21.8738 78.8091 21.5571 79.0638 21.1596C79.3185 20.762 79.4458 20.3117 79.4458 19.8086V18.29C79.3216 18.3708 79.1508 18.4453 78.9334 18.5136C78.7222 18.5757 78.4831 18.6347 78.216 18.6906C77.9489 18.7403 77.6818 18.7869 77.4147 18.8304C77.1477 18.8676 76.9054 18.9018 76.688 18.9329C76.2222 19.0012 75.8154 19.1099 75.4676 19.2589C75.1197 19.408 74.8496 19.6099 74.657 19.8645C74.4645 20.113 74.3682 20.4235 74.3682 20.7962C74.3682 21.3366 74.5638 21.7496 74.9551 22.0353C75.3527 22.3148 75.8558 22.4546 76.4644 22.4546Z" fill="#333333"/>
<path d="M94.1615 10.613V13.5944H85.3293V10.613H94.1615ZM87.351 24.9235V9.57889C87.351 8.54163 87.5529 7.68139 87.9566 6.99816C88.3665 6.31494 88.9255 5.80252 89.6336 5.46091C90.3417 5.11929 91.146 4.94849 92.0466 4.94849C92.6553 4.94849 93.2112 4.99507 93.7143 5.08824C94.2236 5.1814 94.6025 5.26526 94.851 5.33979L94.1429 8.32113C93.9876 8.27145 93.7951 8.22486 93.5653 8.18138C93.3417 8.13791 93.1118 8.11617 92.8758 8.11617C92.292 8.11617 91.8851 8.25281 91.6553 8.5261C91.4255 8.79318 91.3106 9.16895 91.3106 9.65342V24.9235H87.351Z" fill="#333333"/>
<path d="M104.282 10.613V13.5944H95.4496V10.613H104.282ZM97.4713 24.9235V9.57889C97.4713 8.54163 97.6731 7.68139 98.0769 6.99816C98.4868 6.31494 99.0458 5.80252 99.7539 5.46091C100.462 5.11929 101.266 4.94849 102.167 4.94849C102.776 4.94849 103.331 4.99507 103.835 5.08824C104.344 5.1814 104.723 5.26526 104.971 5.33979L104.263 8.32113C104.108 8.27145 103.915 8.22486 103.686 8.18138C103.462 8.13791 103.232 8.11617 102.996 8.11617C102.412 8.11617 102.005 8.25281 101.776 8.5261C101.546 8.79318 101.431 9.16895 101.431 9.65342V24.9235H97.4713Z" fill="#333333"/>
<path d="M106.706 24.9235V10.613H110.554V13.1099H110.703C110.964 12.2217 111.402 11.5509 112.017 11.0975C112.632 10.6379 113.34 10.4081 114.141 10.4081C114.34 10.4081 114.554 10.4205 114.784 10.4453C115.014 10.4702 115.216 10.5043 115.39 10.5478V14.0695C115.203 14.0136 114.946 13.964 114.616 13.9205C114.287 13.877 113.986 13.8553 113.713 13.8553C113.129 13.8553 112.607 13.9826 112.147 14.2372C111.694 14.4857 111.334 14.8335 111.067 15.2807C110.806 15.7279 110.675 16.2434 110.675 16.8273V24.9235H106.706Z" fill="#333333"/>
<path d="M123.241 25.203C121.794 25.203 120.543 24.8955 119.487 24.2806C118.437 23.6595 117.626 22.7962 117.055 21.6906C116.484 20.5788 116.198 19.29 116.198 17.8242C116.198 16.3459 116.484 15.054 117.055 13.9484C117.626 12.8366 118.437 11.9733 119.487 11.3584C120.543 10.7373 121.794 10.4267 123.241 10.4267C124.688 10.4267 125.937 10.7373 126.987 11.3584C128.042 11.9733 128.856 12.8366 129.428 13.9484C129.999 15.054 130.285 16.3459 130.285 17.8242C130.285 19.29 129.999 20.5788 129.428 21.6906C128.856 22.7962 128.042 23.6595 126.987 24.2806C125.937 24.8955 124.688 25.203 123.241 25.203ZM123.26 22.1285C123.918 22.1285 124.468 21.9422 124.909 21.5695C125.35 21.1906 125.682 20.6751 125.906 20.0229C126.136 19.3707 126.251 18.6285 126.251 17.7962C126.251 16.9639 126.136 16.2217 125.906 15.5695C125.682 14.9174 125.35 14.4018 124.909 14.023C124.468 13.6441 123.918 13.4546 123.26 13.4546C122.595 13.4546 122.036 13.6441 121.583 14.023C121.136 14.4018 120.797 14.9174 120.567 15.5695C120.344 16.2217 120.232 16.9639 120.232 17.7962C120.232 18.6285 120.344 19.3707 120.567 20.0229C120.797 20.6751 121.136 21.1906 121.583 21.5695C122.036 21.9422 122.595 22.1285 123.26 22.1285Z" fill="#333333"/>
<path d="M136.834 16.6503V24.9235H132.865V10.613H136.648V13.1379H136.816C137.132 12.3056 137.664 11.6472 138.409 11.1627C139.154 10.672 140.058 10.4267 141.12 10.4267C142.114 10.4267 142.98 10.6441 143.719 11.0789C144.459 11.5137 145.033 12.1348 145.443 12.9422C145.853 13.7435 146.058 14.7 146.058 15.8118V24.9235H142.089V16.5198C142.095 15.6441 141.872 14.9608 141.418 14.4702C140.965 13.9733 140.341 13.7248 139.546 13.7248C139.011 13.7248 138.539 13.8397 138.129 14.0695C137.726 14.2994 137.409 14.6348 137.179 15.0757C136.955 15.5105 136.841 16.0354 136.834 16.6503Z" fill="#333333"/>
<path d="M159.611 11.3304C159.537 10.5789 159.217 9.99504 158.652 9.57889C158.087 9.16274 157.319 8.95467 156.351 8.95467C155.692 8.95467 155.136 9.04784 154.683 9.23417C154.229 9.41429 153.882 9.66585 153.639 9.98882C153.403 10.3118 153.285 10.6783 153.285 11.0882C153.273 11.4298 153.344 11.7279 153.5 11.9826C153.661 12.2373 153.882 12.4578 154.161 12.6441C154.441 12.8242 154.764 12.9826 155.13 13.1192C155.496 13.2497 155.888 13.3615 156.304 13.4546L158.018 13.8646C158.85 14.0509 159.614 14.2994 160.31 14.6099C161.006 14.9205 161.608 15.3025 162.118 15.7559C162.627 16.2093 163.021 16.7434 163.301 17.3583C163.586 17.9732 163.732 18.6782 163.739 19.4732C163.732 20.6409 163.434 21.6533 162.844 22.5105C162.26 23.3614 161.416 24.0229 160.31 24.4949C159.211 24.9608 157.885 25.1937 156.332 25.1937C154.792 25.1937 153.45 24.9577 152.307 24.4856C151.17 24.0136 150.282 23.3148 149.642 22.3894C149.009 21.4577 148.677 20.3055 148.646 18.9329H152.549C152.593 19.5726 152.776 20.1068 153.099 20.5353C153.428 20.9577 153.866 21.2776 154.413 21.495C154.965 21.7061 155.59 21.8117 156.285 21.8117C156.969 21.8117 157.562 21.7123 158.065 21.5136C158.574 21.3148 158.968 21.0384 159.248 20.6844C159.528 20.3304 159.667 19.9235 159.667 19.4639C159.667 19.0353 159.54 18.6751 159.285 18.3832C159.037 18.0913 158.67 17.8428 158.186 17.6378C157.708 17.4329 157.121 17.2465 156.425 17.0788L154.347 16.5571C152.739 16.1658 151.469 15.554 150.537 14.7217C149.605 13.8894 149.142 12.7683 149.149 11.3584C149.142 10.2031 149.45 9.1938 150.071 8.33045C150.698 7.4671 151.559 6.7932 152.652 6.30873C153.745 5.82426 154.987 5.58202 156.378 5.58202C157.795 5.58202 159.031 5.82426 160.087 6.30873C161.149 6.7932 161.975 7.4671 162.565 8.33045C163.155 9.1938 163.459 10.1938 163.478 11.3304H159.611Z" fill="#333333"/>
<path d="M173.989 10.613V13.5944H165.371V10.613H173.989ZM167.328 7.1845H171.297V20.526C171.297 20.8925 171.353 21.1782 171.465 21.3832C171.576 21.5819 171.732 21.7217 171.93 21.8024C172.135 21.8832 172.371 21.9235 172.638 21.9235C172.825 21.9235 173.011 21.908 173.197 21.8769C173.384 21.8397 173.527 21.8117 173.626 21.7931L174.25 24.7465C174.051 24.8086 173.772 24.88 173.412 24.9608C173.051 25.0477 172.614 25.1005 172.098 25.1192C171.142 25.1564 170.303 25.0291 169.583 24.7372C168.868 24.4452 168.312 23.9918 167.915 23.3769C167.517 22.762 167.322 21.9856 167.328 21.0478V7.1845Z" fill="#333333"/>
<path d="M180.655 25.1937C179.742 25.1937 178.929 25.0353 178.214 24.7185C177.5 24.3956 176.935 23.9204 176.519 23.2931C176.109 22.6595 175.904 21.8707 175.904 20.9266C175.904 20.1316 176.05 19.4639 176.342 18.9235C176.634 18.3832 177.031 17.9484 177.534 17.6192C178.037 17.29 178.609 17.0416 179.249 16.8739C179.895 16.7062 180.572 16.5882 181.28 16.5198C182.112 16.4329 182.783 16.3521 183.292 16.2776C183.801 16.1969 184.171 16.0788 184.401 15.9236C184.631 15.7683 184.745 15.5385 184.745 15.2341V15.1782C184.745 14.5882 184.559 14.1317 184.186 13.8087C183.82 13.4857 183.298 13.3242 182.621 13.3242C181.907 13.3242 181.339 13.4826 180.916 13.7994C180.494 14.1099 180.214 14.5012 180.078 14.9733L176.407 14.6751C176.593 13.8056 176.96 13.054 177.506 12.4205C178.053 11.7807 178.758 11.2901 179.621 10.9484C180.491 10.6006 181.497 10.4267 182.64 10.4267C183.435 10.4267 184.196 10.5199 184.923 10.7062C185.655 10.8925 186.304 11.1814 186.87 11.5727C187.441 11.964 187.891 12.4671 188.221 13.082C188.55 13.6907 188.714 14.4205 188.714 15.2714V24.9235H184.95V22.939H184.839C184.609 23.3862 184.301 23.7807 183.916 24.1223C183.531 24.4577 183.068 24.7216 182.528 24.9142C181.988 25.1005 181.364 25.1937 180.655 25.1937ZM181.792 22.4546C182.376 22.4546 182.891 22.3397 183.339 22.1099C183.786 21.8738 184.137 21.5571 184.391 21.1596C184.646 20.762 184.773 20.3117 184.773 19.8086V18.29C184.649 18.3708 184.478 18.4453 184.261 18.5136C184.05 18.5757 183.811 18.6347 183.544 18.6906C183.277 18.7403 183.009 18.7869 182.742 18.8304C182.475 18.8676 182.233 18.9018 182.016 18.9329C181.55 19.0012 181.143 19.1099 180.795 19.2589C180.447 19.408 180.177 19.6099 179.985 19.8645C179.792 20.113 179.696 20.4235 179.696 20.7962C179.696 21.3366 179.891 21.7496 180.283 22.0353C180.68 22.3148 181.183 22.4546 181.792 22.4546Z" fill="#333333"/>
<path d="M193.731 30.2899C193.228 30.2899 192.756 30.2495 192.315 30.1688C191.881 30.0943 191.52 29.998 191.235 29.88L192.129 26.9173C192.595 27.0601 193.014 27.1378 193.387 27.1502C193.766 27.1626 194.092 27.0757 194.365 26.8893C194.644 26.703 194.871 26.3862 195.045 25.939L195.278 25.3334L190.145 10.613H194.318L197.281 21.1223H197.43L200.421 10.613H204.623L199.061 26.4701C198.794 27.2403 198.43 27.9111 197.971 28.4825C197.517 29.0601 196.943 29.5042 196.247 29.8148C195.551 30.1315 194.713 30.2899 193.731 30.2899Z" fill="#333333"/>
<path d="M218.56 14.6938L214.927 14.9174C214.865 14.6068 214.731 14.3273 214.526 14.0789C214.321 13.8242 214.051 13.6223 213.716 13.4733C213.387 13.318 212.992 13.2404 212.533 13.2404C211.918 13.2404 211.399 13.3708 210.977 13.6317C210.554 13.8863 210.343 14.2279 210.343 14.6565C210.343 14.9981 210.48 15.2869 210.753 15.5229C211.026 15.759 211.495 15.9484 212.16 16.0913L214.75 16.613C216.141 16.8987 217.178 17.3583 217.862 17.9919C218.545 18.6254 218.887 19.4577 218.887 20.4887C218.887 21.4266 218.61 22.2496 218.057 22.9577C217.511 23.6657 216.759 24.2185 215.803 24.616C214.852 25.0074 213.756 25.203 212.514 25.203C210.62 25.203 209.11 24.8086 207.986 24.0198C206.868 23.2248 206.213 22.144 206.02 20.7776L209.924 20.5726C210.042 21.1502 210.328 21.5912 210.781 21.8956C211.234 22.1937 211.815 22.3428 212.523 22.3428C213.219 22.3428 213.778 22.2092 214.2 21.9422C214.629 21.6689 214.846 21.3179 214.852 20.8894C214.846 20.5291 214.694 20.2341 214.396 20.0043C214.098 19.7683 213.638 19.5881 213.017 19.4639L210.539 18.9701C209.141 18.6906 208.101 18.2062 207.418 17.5167C206.741 16.8273 206.402 15.9484 206.402 14.8801C206.402 13.9608 206.651 13.1689 207.148 12.5043C207.651 11.8397 208.356 11.3273 209.262 10.9671C210.175 10.6068 211.244 10.4267 212.467 10.4267C214.275 10.4267 215.697 10.8087 216.734 11.5727C217.778 12.3366 218.387 13.377 218.56 14.6938Z" fill="#333333"/>
<path d="M55.1544 41.9775L52.9929 34.8222H53.8687L55.5643 40.7244H55.6249L57.3159 34.8222H58.1963L59.8733 40.7104H59.9385L61.6342 34.8222H62.5099L60.3485 41.9775H59.4913L57.7957 36.1126H57.7072L56.0115 41.9775H55.1544Z" fill="#333333"/>
<path d="M67.4433 37.5055V41.9775H66.6141V32.4372H67.4433V35.9449H67.5178C67.6855 35.5753 67.9449 35.2803 68.2958 35.0598C68.6498 34.8393 69.097 34.7291 69.6374 34.7291C70.1219 34.7291 70.5473 34.8285 70.9138 35.0272C71.2802 35.226 71.566 35.5194 71.7709 35.9076C71.9759 36.2958 72.0784 36.7741 72.0784 37.3424V41.9775H71.2445V37.3937C71.2445 36.8036 71.0799 36.3393 70.7507 36.0008C70.4247 35.6592 69.9837 35.4884 69.4278 35.4884C69.0458 35.4884 68.7057 35.5691 68.4076 35.7306C68.1095 35.8921 67.8734 36.125 67.6995 36.4294C67.5287 36.7306 67.4433 37.0893 67.4433 37.5055Z" fill="#333333"/>
<path d="M79.6472 42.1265C78.9795 42.1265 78.4019 41.9713 77.9143 41.6607C77.4267 41.347 77.0494 40.9138 76.7823 40.361C76.5184 39.8051 76.3864 39.1654 76.3864 38.4418C76.3864 37.7213 76.5184 37.0815 76.7823 36.5225C77.0494 35.9604 77.4174 35.521 77.8864 35.2042C78.3584 34.8844 78.9034 34.7244 79.5214 34.7244C79.9096 34.7244 80.2839 34.7959 80.6441 34.9387C81.0043 35.0785 81.3273 35.2943 81.613 35.5862C81.9019 35.875 82.1301 36.2399 82.2978 36.6809C82.4655 37.1188 82.5494 37.6374 82.5494 38.2368V38.6468H76.9593V37.9154H81.7015C81.7015 37.4558 81.6084 37.0427 81.422 36.6763C81.2388 36.3067 80.9826 36.0148 80.6534 35.8005C80.3273 35.5862 79.95 35.4791 79.5214 35.4791C79.068 35.4791 78.669 35.6002 78.3242 35.8424C77.9795 36.0847 77.7093 36.4045 77.5137 36.802C77.3211 37.1996 77.2233 37.6343 77.2202 38.1064V38.5443C77.2202 39.1126 77.318 39.6095 77.5137 40.0349C77.7124 40.4573 77.9935 40.7849 78.3569 41.0179C78.7202 41.2508 79.1503 41.3672 79.6472 41.3672C79.9857 41.3672 80.2823 41.3144 80.537 41.2088C80.7947 41.1033 81.0106 40.962 81.1845 40.7849C81.3615 40.6048 81.495 40.4076 81.5851 40.1933L82.3724 40.4495C82.2637 40.7508 82.0851 41.0287 81.8366 41.2834C81.5913 41.538 81.2838 41.743 80.9143 41.8983C80.5478 42.0505 80.1255 42.1265 79.6472 42.1265Z" fill="#333333"/>
<path d="M86.869 41.9775V34.8222H87.6749V35.9216H87.7355C87.8783 35.5614 88.1268 35.271 88.4808 35.0505C88.8379 34.8269 89.2417 34.7151 89.692 34.7151C89.7603 34.7151 89.8364 34.7167 89.9202 34.7198C90.0041 34.7229 90.074 34.726 90.1299 34.7291V35.5722C90.0926 35.566 90.0274 35.5567 89.9342 35.5443C89.841 35.5319 89.7401 35.5257 89.6314 35.5257C89.2587 35.5257 88.9265 35.6049 88.6345 35.7632C88.3457 35.9185 88.1175 36.1344 87.9498 36.4107C87.7821 36.6871 87.6982 37.0024 87.6982 37.3564V41.9775H86.869Z" fill="#333333"/>
<path d="M96.7123 42.1265C96.0446 42.1265 95.467 41.9713 94.9794 41.6607C94.4918 41.347 94.1145 40.9138 93.8474 40.361C93.5834 39.8051 93.4515 39.1654 93.4515 38.4418C93.4515 37.7213 93.5834 37.0815 93.8474 36.5225C94.1145 35.9604 94.4825 35.521 94.9514 35.2042C95.4235 34.8844 95.9685 34.7244 96.5865 34.7244C96.9747 34.7244 97.3489 34.7959 97.7092 34.9387C98.0694 35.0785 98.3924 35.2943 98.6781 35.5862C98.9669 35.875 99.1952 36.2399 99.3629 36.6809C99.5306 37.1188 99.6145 37.6374 99.6145 38.2368V38.6468H94.0244V37.9154H98.7666C98.7666 37.4558 98.6735 37.0427 98.4871 36.6763C98.3039 36.3067 98.0477 36.0148 97.7185 35.8005C97.3924 35.5862 97.0151 35.4791 96.5865 35.4791C96.1331 35.4791 95.734 35.6002 95.3893 35.8424C95.0446 36.0847 94.7744 36.4045 94.5788 36.802C94.3862 37.1996 94.2884 37.6343 94.2853 38.1064V38.5443C94.2853 39.1126 94.3831 39.6095 94.5788 40.0349C94.7775 40.4573 95.0586 40.7849 95.4219 41.0179C95.7853 41.2508 96.2154 41.3672 96.7123 41.3672C97.0508 41.3672 97.3474 41.3144 97.602 41.2088C97.8598 41.1033 98.0756 40.962 98.2496 40.7849C98.4266 40.6048 98.5601 40.4076 98.6502 40.1933L99.4374 40.4495C99.3287 40.7508 99.1502 41.0287 98.9017 41.2834C98.6564 41.538 98.3489 41.743 97.9794 41.8983C97.6129 42.0505 97.1906 42.1265 96.7123 42.1265Z" fill="#333333"/>
<path d="M113.06 34.8222V35.5443H109.543V34.8222H113.06ZM110.642 41.9775V33.7741C110.642 33.389 110.731 33.0645 110.908 32.8005C111.088 32.5366 111.322 32.3362 111.611 32.1996C111.9 32.063 112.206 31.9946 112.529 31.9946C112.746 31.9946 112.926 32.0133 113.069 32.0505C113.215 32.0847 113.33 32.1189 113.414 32.153L113.172 32.8797C113.11 32.8611 113.034 32.8393 112.944 32.8145C112.853 32.7897 112.74 32.7772 112.603 32.7772C112.243 32.7772 111.965 32.8782 111.77 33.08C111.574 33.2819 111.476 33.5707 111.476 33.9465L111.471 41.9775H110.642Z" fill="#333333"/>
<path d="M119.014 42.1405C118.582 42.1405 118.187 42.0567 117.83 41.889C117.473 41.7182 117.189 41.4728 116.978 41.1529C116.767 40.83 116.661 40.4387 116.661 39.979C116.661 39.625 116.728 39.3269 116.861 39.0846C116.995 38.8424 117.184 38.6436 117.43 38.4884C117.675 38.3331 117.965 38.2104 118.301 38.1204C118.636 38.0303 119.006 37.9604 119.41 37.9107C119.81 37.861 120.149 37.8176 120.425 37.7803C120.705 37.743 120.917 37.684 121.063 37.6033C121.209 37.5225 121.282 37.3921 121.282 37.212V37.0443C121.282 36.5567 121.136 36.1732 120.844 35.8937C120.555 35.6111 120.139 35.4698 119.596 35.4698C119.08 35.4698 118.66 35.5831 118.333 35.8098C118.01 36.0365 117.784 36.3036 117.653 36.6111L116.866 36.3269C117.028 35.9356 117.251 35.6235 117.537 35.3906C117.823 35.1545 118.142 34.9853 118.496 34.8828C118.851 34.7772 119.209 34.7244 119.573 34.7244C119.846 34.7244 120.13 34.7601 120.425 34.8316C120.723 34.903 121 35.0272 121.254 35.2042C121.509 35.3781 121.715 35.6219 121.874 35.9356C122.032 36.2462 122.111 36.6406 122.111 37.1188V41.9775H121.282V40.8455H121.231C121.132 41.0567 120.984 41.2616 120.788 41.4604C120.593 41.6592 120.347 41.8222 120.052 41.9495C119.757 42.0769 119.411 42.1405 119.014 42.1405ZM119.125 41.3812C119.566 41.3812 119.948 41.2834 120.271 41.0877C120.594 40.8921 120.843 40.6328 121.017 40.3098C121.194 39.9837 121.282 39.625 121.282 39.2337V38.1996C121.22 38.2586 121.116 38.3114 120.97 38.3579C120.827 38.4045 120.661 38.4464 120.472 38.4837C120.285 38.5179 120.099 38.5474 119.913 38.5722C119.726 38.5971 119.559 38.6188 119.41 38.6374C119.006 38.6871 118.661 38.7648 118.375 38.8704C118.09 38.9759 117.871 39.1219 117.719 39.3082C117.566 39.4915 117.49 39.7275 117.49 40.0163C117.49 40.4511 117.646 40.788 117.956 41.0272C118.267 41.2632 118.656 41.3812 119.125 41.3812Z" fill="#333333"/>
<path d="M126.809 41.9775V34.8222H127.615V35.9216H127.69C127.833 35.5521 128.07 35.2617 128.403 35.0505C128.738 34.8362 129.14 34.7291 129.609 34.7291C130.103 34.7291 130.508 34.8455 130.825 35.0785C131.145 35.3083 131.384 35.625 131.542 36.0288H131.603C131.764 35.6312 132.027 35.316 132.39 35.0831C132.757 34.8471 133.201 34.7291 133.722 34.7291C134.387 34.7291 134.912 34.9387 135.297 35.358C135.682 35.7741 135.875 36.3828 135.875 37.184V41.9775H135.045V37.184C135.045 36.6188 134.901 36.1949 134.612 35.9123C134.323 35.6297 133.943 35.4884 133.471 35.4884C132.924 35.4884 132.504 35.6561 132.209 35.9915C131.913 36.3269 131.766 36.7524 131.766 37.2679V41.9775H130.918V37.1095C130.918 36.625 130.783 36.2337 130.513 35.9356C130.243 35.6375 129.862 35.4884 129.372 35.4884C129.042 35.4884 128.746 35.5691 128.482 35.7306C128.221 35.8921 128.014 36.1173 127.862 36.4061C127.713 36.6918 127.639 37.021 127.639 37.3937V41.9775H126.809Z" fill="#333333"/>
<path d="M140.572 41.9775V34.8222H141.405V41.9775H140.572ZM140.996 33.5924C140.825 33.5924 140.679 33.535 140.558 33.4201C140.437 33.3021 140.376 33.1608 140.376 32.9962C140.376 32.8316 140.437 32.6918 140.558 32.5769C140.679 32.4589 140.825 32.3999 140.996 32.3999C141.166 32.3999 141.312 32.4589 141.433 32.5769C141.555 32.6918 141.615 32.8316 141.615 32.9962C141.615 33.1608 141.555 33.3021 141.433 33.4201C141.312 33.535 141.166 33.5924 140.996 33.5924Z" fill="#333333"/>
<path d="M146.92 32.4372V41.9775H146.091V32.4372H146.92Z" fill="#333333"/>
<path d="M151.616 41.9775V34.8222H152.45V41.9775H151.616ZM152.04 33.5924C151.869 33.5924 151.723 33.535 151.602 33.4201C151.481 33.3021 151.42 33.1608 151.42 32.9962C151.42 32.8316 151.481 32.6918 151.602 32.5769C151.723 32.4589 151.869 32.3999 152.04 32.3999C152.21 32.3999 152.356 32.4589 152.478 32.5769C152.599 32.6918 152.659 32.8316 152.659 32.9962C152.659 33.1608 152.599 33.3021 152.478 33.4201C152.356 33.535 152.21 33.5924 152.04 33.5924Z" fill="#333333"/>
<path d="M160.028 42.1265C159.36 42.1265 158.782 41.9713 158.295 41.6607C157.807 41.347 157.43 40.9138 157.163 40.361C156.899 39.8051 156.767 39.1654 156.767 38.4418C156.767 37.7213 156.899 37.0815 157.163 36.5225C157.43 35.9604 157.798 35.521 158.267 35.2042C158.739 34.8844 159.284 34.7244 159.902 34.7244C160.29 34.7244 160.664 34.7959 161.025 34.9387C161.385 35.0785 161.708 35.2943 161.994 35.5862C162.282 35.875 162.511 36.2399 162.678 36.6809C162.846 37.1188 162.93 37.6374 162.93 38.2368V38.6468H157.34V37.9154H162.082C162.082 37.4558 161.989 37.0427 161.803 36.6763C161.619 36.3067 161.363 36.0148 161.034 35.8005C160.708 35.5862 160.331 35.4791 159.902 35.4791C159.449 35.4791 159.05 35.6002 158.705 35.8424C158.36 36.0847 158.09 36.4045 157.894 36.802C157.702 37.1996 157.604 37.6343 157.601 38.1064V38.5443C157.601 39.1126 157.699 39.6095 157.894 40.0349C158.093 40.4573 158.374 40.7849 158.737 41.0179C159.101 41.2508 159.531 41.3672 160.028 41.3672C160.366 41.3672 160.663 41.3144 160.918 41.2088C161.175 41.1033 161.391 40.962 161.565 40.7849C161.742 40.6048 161.876 40.4076 161.966 40.1933L162.753 40.4495C162.644 40.7508 162.466 41.0287 162.217 41.2834C161.972 41.538 161.664 41.743 161.295 41.8983C160.928 42.0505 160.506 42.1265 160.028 42.1265Z" fill="#333333"/>
<path d="M172.057 36.3921L171.298 36.6064C171.223 36.3921 171.118 36.198 170.981 36.0241C170.844 35.8502 170.666 35.712 170.445 35.6095C170.228 35.507 169.958 35.4558 169.635 35.4558C169.15 35.4558 168.753 35.5707 168.442 35.8005C168.132 36.0303 167.976 36.3269 167.976 36.6902C167.976 36.9977 168.082 37.2477 168.293 37.4402C168.507 37.6297 168.837 37.7803 169.281 37.8921L170.361 38.1576C170.961 38.3036 171.409 38.535 171.708 38.8517C172.009 39.1685 172.159 39.566 172.159 40.0443C172.159 40.448 172.048 40.8067 171.824 41.1203C171.6 41.434 171.288 41.6809 170.888 41.861C170.49 42.038 170.029 42.1265 169.504 42.1265C168.805 42.1265 168.229 41.9697 167.776 41.6561C167.323 41.3393 167.032 40.8828 166.905 40.2865L167.701 40.0908C167.804 40.5163 168.004 40.8377 168.302 41.0551C168.604 41.2725 169 41.3812 169.49 41.3812C170.04 41.3812 170.479 41.2585 170.809 41.0132C171.138 40.7648 171.302 40.4542 171.302 40.0815C171.302 39.7927 171.206 39.5505 171.014 39.3548C170.821 39.1561 170.529 39.0101 170.138 38.9169L168.969 38.6374C168.347 38.4884 167.888 38.2523 167.59 37.9294C167.291 37.6064 167.142 37.2058 167.142 36.7275C167.142 36.3331 167.25 35.9868 167.464 35.6887C167.678 35.3875 167.973 35.1514 168.349 34.9806C168.725 34.8098 169.153 34.7244 169.635 34.7244C170.29 34.7244 170.813 34.8735 171.205 35.1716C171.599 35.4667 171.883 35.8735 172.057 36.3921Z" fill="#333333"/>
<path d="M182.822 41.9775V32.4372H183.656V36.1871H183.73C183.823 35.9729 183.957 35.7524 184.131 35.5257C184.308 35.299 184.539 35.1095 184.825 34.9573C185.114 34.8021 185.477 34.7244 185.915 34.7244C186.502 34.7244 187.017 34.8797 187.461 35.1903C187.905 35.4977 188.252 35.9294 188.5 36.4853C188.749 37.0381 188.873 37.6825 188.873 38.4185C188.873 39.1576 188.749 39.8051 188.5 40.361C188.255 40.9169 187.91 41.3502 187.466 41.6607C187.025 41.9713 186.513 42.1265 185.929 42.1265C185.494 42.1265 185.131 42.0489 184.839 41.8936C184.55 41.7383 184.317 41.5474 184.14 41.3206C183.963 41.0908 183.826 40.8672 183.73 40.6498H183.628V41.9775H182.822ZM183.642 38.4045C183.642 38.9822 183.727 39.4946 183.898 39.9418C184.072 40.3859 184.32 40.7353 184.643 40.9899C184.969 41.2415 185.364 41.3672 185.826 41.3672C186.301 41.3672 186.704 41.2368 187.033 40.9759C187.362 40.712 187.612 40.3564 187.783 39.9092C187.954 39.462 188.039 38.9604 188.039 38.4045C188.039 37.8548 187.954 37.3595 187.783 36.9185C187.615 36.4775 187.367 36.1281 187.037 35.8704C186.708 35.6095 186.305 35.4791 185.826 35.4791C185.36 35.4791 184.964 35.6049 184.638 35.8564C184.315 36.1048 184.069 36.4496 183.898 36.8906C183.727 37.3284 183.642 37.8331 183.642 38.4045Z" fill="#333333"/>
<path d="M195.968 42.1265C195.35 42.1265 194.803 41.9697 194.328 41.6561C193.856 41.3424 193.486 40.9092 193.219 40.3564C192.952 39.8005 192.819 39.1592 192.819 38.4325C192.819 37.6996 192.952 37.0552 193.219 36.4993C193.486 35.9403 193.856 35.5055 194.328 35.1949C194.803 34.8813 195.35 34.7244 195.968 34.7244C196.586 34.7244 197.131 34.8813 197.603 35.1949C198.075 35.5086 198.444 35.9434 198.711 36.4993C198.982 37.0552 199.117 37.6996 199.117 38.4325C199.117 39.1592 198.983 39.8005 198.716 40.3564C198.449 40.9092 198.078 41.3424 197.603 41.6561C197.131 41.9697 196.586 42.1265 195.968 42.1265ZM195.968 41.3672C196.465 41.3672 196.885 41.2337 197.23 40.9666C197.575 40.6995 197.836 40.3439 198.013 39.8999C198.193 39.4558 198.283 38.9666 198.283 38.4325C198.283 37.8983 198.193 37.4076 198.013 36.9604C197.836 36.5132 197.575 36.1545 197.23 35.8844C196.885 35.6142 196.465 35.4791 195.968 35.4791C195.474 35.4791 195.053 35.6142 194.705 35.8844C194.361 36.1545 194.098 36.5132 193.918 36.9604C193.741 37.4076 193.653 37.8983 193.653 38.4325C193.653 38.9666 193.741 39.4558 193.918 39.8999C194.098 40.3439 194.361 40.6995 194.705 40.9666C195.05 41.2337 195.471 41.3672 195.968 41.3672Z" fill="#333333"/>
<path d="M204.259 37.5055V41.9775H203.429V34.8222H204.235V35.9449H204.31C204.478 35.5785 204.738 35.285 205.092 35.0645C205.45 34.8409 205.891 34.7291 206.415 34.7291C206.897 34.7291 207.319 34.83 207.682 35.0319C208.049 35.2306 208.333 35.5241 208.535 35.9123C208.74 36.3005 208.842 36.7772 208.842 37.3424V41.9775H208.013V37.3937C208.013 36.8067 207.849 36.3424 207.519 36.0008C207.193 35.6592 206.755 35.4884 206.206 35.4884C205.83 35.4884 205.496 35.5691 205.204 35.7306C204.912 35.8921 204.681 36.125 204.51 36.4294C204.342 36.7306 204.259 37.0893 204.259 37.5055Z" fill="#333333"/>
<path d="M216.094 42.1265C215.508 42.1265 214.994 41.9713 214.553 41.6607C214.112 41.3502 213.767 40.9169 213.518 40.361C213.273 39.8051 213.15 39.1576 213.15 38.4185C213.15 37.6825 213.273 37.0381 213.518 36.4853C213.767 35.9294 214.113 35.4977 214.557 35.1903C215.001 34.8797 215.518 34.7244 216.108 34.7244C216.543 34.7244 216.905 34.8021 217.194 34.9573C217.483 35.1095 217.714 35.299 217.888 35.5257C218.062 35.7524 218.197 35.9729 218.293 36.1871H218.368V32.4372H219.202V41.9775H218.391V40.6498H218.293C218.197 40.8672 218.06 41.0908 217.883 41.3206C217.706 41.5474 217.472 41.7383 217.18 41.8936C216.891 42.0489 216.529 42.1265 216.094 42.1265ZM216.192 41.3672C216.655 41.3672 217.049 41.2415 217.376 40.9899C217.702 40.7353 217.95 40.3859 218.121 39.9418C218.295 39.4946 218.382 38.9822 218.382 38.4045C218.382 37.8331 218.296 37.3284 218.126 36.8906C217.955 36.4496 217.706 36.1048 217.38 35.8564C217.054 35.6049 216.658 35.4791 216.192 35.4791C215.714 35.4791 215.31 35.6095 214.981 35.8704C214.655 36.1281 214.407 36.4775 214.236 36.9185C214.068 37.3595 213.984 37.8548 213.984 38.4045C213.984 38.9604 214.07 39.462 214.24 39.9092C214.411 40.3564 214.66 40.712 214.986 40.9759C215.315 41.2368 215.717 41.3672 216.192 41.3672Z" fill="#333333"/>
<path fill-rule="evenodd" clip-rule="evenodd" d="M13.3358 15.9498L14.2338 18.3997C14.2338 18.3997 24.2868 12.3713 27.8796 10.2337C32.6198 6.2707 28.5033 -0.0448909 24.0134 0.00236488C22.927 -0.0278599 21.8531 0.232138 20.9107 0.753535C19.9684 1.27493 19.1944 2.03736 18.6746 2.95631C16.9537 5.62209 18.5495 9.4424 20.0712 10.1837C20.1609 10.1294 20.5239 9.87973 20.9369 9.59566C21.4409 9.24894 22.0195 8.851 22.2665 8.69464C19.9711 7.35017 19.4754 2.93037 23.8132 2.49858C27.2309 2.37812 28.229 6.77384 26.3079 8.31011C25.6843 8.67333 13.3358 15.9498 13.3358 15.9498ZM25.2611 13.2856L27.6807 11.917C27.6807 11.917 37.4593 18.9294 38.8568 19.6503C39.3372 19.9436 39.888 20.1127 40.4561 20.1411C41.0242 20.1694 41.5903 20.0562 42.0996 19.8122C42.6089 19.5683 43.0442 19.2019 43.3633 18.7486C43.6825 18.2952 43.8747 17.7703 43.9213 17.2245C44.1206 12.7092 37.7346 12.8297 37.1359 16.36C36.6494 16.0357 36.3563 15.8196 36.0633 15.6034L36.0632 15.6034L36.0632 15.6034C35.7702 15.3873 35.4771 15.1712 34.9906 14.8469C36.288 11.0284 41.1273 10.5003 43.622 11.7725C44.6311 12.2831 45.458 13.0731 45.996 14.0407C46.5341 15.0082 46.7585 16.1088 46.6403 17.2004C46.0917 22.1474 41.0022 24.0692 37.7596 22.0038C36.0878 20.8984 25.2611 13.2856 25.2611 13.2856ZM34.766 21.8342L32.6207 20.297C32.6207 20.297 27.9306 32.9773 27.4301 34.3254C26.8333 37.0394 28.5793 41.4787 33.4936 41.386C34.9077 41.2816 36.2465 40.7307 37.302 39.8187C38.3575 38.9068 39.0707 37.6848 39.331 36.3426C39.4498 34.8053 38.9565 33.2821 37.9512 32.0823C36.9458 30.8825 35.5039 30.096 33.9181 29.8825C33.8379 30.0783 33.7699 30.239 33.7054 30.3913L33.7049 30.3925L33.7048 30.3927L33.7048 30.3928C33.5087 30.856 33.345 31.2428 32.97 32.3083C37.9094 32.4046 37.8844 38.6971 33.2693 38.9611C32.7426 38.9606 32.223 38.8441 31.7502 38.6206C31.2774 38.3971 30.8639 38.0725 30.5414 37.6716C30.2189 37.2707 29.9958 36.8041 29.8893 36.3075C29.7827 35.8109 29.7956 35.2974 29.9267 34.8063C30.1009 34.2504 34.766 21.8342 34.766 21.8342ZM26.4326 32.9031L27.4057 30.216C27.4057 30.216 13.7108 30.2401 11.7175 30.2401C6.72809 30.456 5.35657 34.9713 6.12943 37.6611C9.1227 45.5371 19.7002 40.9968 17.655 34.4913C16.782 34.4672 15.3595 34.4431 14.96 34.4431C15.7579 36.653 14.5856 39.1261 11.9167 39.1983C11.0845 39.199 10.2825 38.8984 9.66985 38.3561C9.05721 37.8139 8.67879 37.0696 8.60971 36.2712C8.54063 35.4728 8.78594 34.6786 9.29694 34.0462C9.80795 33.4139 10.5473 32.9896 11.3681 32.8577C12.2642 32.8818 26.4326 32.9031 26.4326 32.9031ZM16.1554 29.0636H13.2863C13.2863 29.0636 9.22087 16.5028 8.94464 15.7115C8.61401 15.0804 8.08074 14.5689 7.42406 14.2528C6.76738 13.9367 6.02232 13.833 5.29954 13.9571C4.57675 14.0811 3.9148 14.4263 3.41202 14.9413C2.90923 15.4564 2.59242 16.1138 2.50864 16.816C2.47789 17.4653 2.65052 18.1085 3.00413 18.6622C3.35774 19.216 3.87601 19.6546 4.49173 19.9213C5.10745 20.1879 5.79219 20.2703 6.45715 20.1578C7.1221 20.0452 7.73658 19.7429 8.22087 19.29C8.30728 19.5925 8.38249 19.8608 8.46352 20.1498C8.5937 20.6142 8.73891 21.1321 8.96967 21.9317C4.15735 24.4288 0.738673 21.3072 0.114996 17.9928C-0.433609 15.0147 1.038 13.093 3.30845 11.7244C4.07981 11.3648 4.92271 11.1697 5.77958 11.1524C6.63645 11.1352 7.48708 11.2962 8.27338 11.6245C9.05966 11.9528 9.76308 12.4407 10.3356 13.0547C10.908 13.6687 11.3361 14.3945 11.5905 15.1824C11.8147 15.9265 16.1554 29.0636 16.1554 29.0636Z" fill="#FBA919"/>
</svg>
