<svg width="22" height="19" viewBox="0 0 22 19" fill="none" xmlns="http://www.w3.org/2000/svg">
<path d="M15 17.6794V15.9227C15 14.9909 14.6313 14.0973 13.9749 13.4384C13.3185 12.7795 12.4283 12.4093 11.5 12.4093H4.5C3.57174 12.4093 2.6815 12.7795 2.02513 13.4384C1.36875 14.0973 1 14.9909 1 15.9227V17.6794" stroke="#888888" stroke-width="2" stroke-linecap="round" stroke-linejoin="round"/>
<path d="M8 8.89587C9.933 8.89587 11.5 7.32289 11.5 5.38251C11.5 3.44213 9.933 1.86914 8 1.86914C6.067 1.86914 4.5 3.44213 4.5 5.38251C4.5 7.32289 6.067 8.89587 8 8.89587Z" stroke="#888888" stroke-width="2" stroke-linecap="round" stroke-linejoin="round"/>
<path d="M20.25 17.6794V15.9228C20.2494 15.1443 19.9913 14.3881 19.5162 13.7728C19.0411 13.1576 18.3759 12.7182 17.625 12.5236" stroke="#888888" stroke-width="2" stroke-linecap="round" stroke-linejoin="round"/>
<path d="M14.125 1.98328C14.8779 2.17678 15.5451 2.61631 16.0217 3.23257C16.4982 3.84883 16.7568 4.60677 16.7568 5.3869C16.7568 6.16703 16.4982 6.92497 16.0217 7.54123C15.5451 8.1575 14.8779 8.59702 14.125 8.79053" stroke="#888888" stroke-width="2" stroke-linecap="round" stroke-linejoin="round"/>
</svg>
