<svg width="393" height="90" viewBox="0 0 393 90" fill="none" xmlns="http://www.w3.org/2000/svg">
<rect opacity="0.1" x="1" width="201" height="90" fill="white"/>
<path d="M246.884 33.3438L253.997 43.9421H254.086L261.199 33.3438H262.083L254.483 44.6018L262.083 55.8598H261.199L254.086 45.2614H253.997L246.884 55.8598H246L253.6 44.6018L246 33.3438H246.884Z" fill="url(#paint0_linear_1_370)"/>
<path d="M269.103 47.1853C269.103 48.4004 269.403 49.3273 270.004 49.9661C270.618 50.605 271.366 50.9244 272.248 50.9244C273.13 50.9244 273.852 50.7177 274.415 50.3044C274.977 49.8785 275.259 49.2146 275.259 48.3127C275.259 47.4985 274.818 46.7719 273.935 46.1331C273.552 45.8575 273.124 45.5882 272.651 45.3251C272.178 45.0496 271.705 44.7677 271.232 44.4796C270.759 44.1915 270.33 43.8909 269.947 43.5777C269.065 42.8512 268.623 42.0057 268.623 41.0411C268.623 40.0641 268.981 39.2875 269.697 38.7112C270.426 38.135 271.385 37.8469 272.574 37.8469C273.776 37.8469 274.888 38.1037 275.911 38.6173C275.911 39.2436 275.815 40.3209 275.623 41.8491L275.335 41.7739C275.335 40.5965 275.041 39.7196 274.453 39.1434C273.865 38.5547 273.188 38.2603 272.421 38.2603C271.666 38.2603 271.059 38.4795 270.599 38.9179C270.138 39.3438 269.908 39.8511 269.908 40.4399C269.908 41.0286 270.068 41.5359 270.388 41.9618C270.72 42.3752 271.129 42.7197 271.615 42.9952C272.114 43.2708 272.651 43.5777 273.226 43.9159C273.801 44.2416 274.332 44.5673 274.818 44.893C275.316 45.2061 275.725 45.6195 276.045 46.1331C276.377 46.6467 276.544 47.2229 276.544 47.8617C276.544 49.0141 276.122 49.8847 275.278 50.4735C274.447 51.0622 273.443 51.3566 272.267 51.3566C271.615 51.3566 270.944 51.2564 270.254 51.0559C269.576 50.8555 269.02 50.5611 268.585 50.1728C268.585 49.3711 268.662 48.3565 268.815 47.1289L269.103 47.1853Z" fill="url(#paint1_linear_1_370)"/>
<path d="M292.065 51.1687H282.4L282.438 50.9432C283.078 50.9432 283.544 50.8242 283.838 50.5862C284.158 50.3231 284.318 49.1018 284.318 46.9222V42.2625C284.318 40.9221 284.273 40.0077 284.183 39.5192C284.107 39.0181 283.992 38.705 283.838 38.5797C283.544 38.3417 283.078 38.2227 282.438 38.2227L282.4 38.016H291.356V40.7217L291.125 40.6841C291.125 39.8449 290.672 39.2624 289.764 38.9367C288.869 38.611 287.495 38.4482 285.641 38.4482V44.3669C286.868 44.3669 287.75 44.3042 288.287 44.179C288.824 44.0537 289.169 43.8658 289.323 43.6153C289.476 43.3522 289.553 42.9201 289.553 42.3188L289.764 42.2812V46.8471L289.553 46.8095C289.553 46.1957 289.476 45.7636 289.323 45.513C289.169 45.2625 288.824 45.0809 288.287 44.9681C287.75 44.8429 286.868 44.7802 285.641 44.7802V47.2041C285.641 48.5319 285.686 49.415 285.775 49.8534C285.877 50.2918 286.095 50.5862 286.427 50.7365C290.032 50.7365 291.835 49.9849 291.835 48.4818L292.065 48.4442V51.1687Z" fill="url(#paint2_linear_1_370)"/>
<path d="M307.852 51.1687C307.532 51.1687 307.212 51.0121 306.893 50.6989C306.586 50.3732 306.305 49.9724 306.049 49.4964C305.806 49.0204 305.518 48.5068 305.186 47.9557C304.854 47.392 304.521 46.8659 304.189 46.3774C303.856 45.8888 303.435 45.4755 302.923 45.1372C302.412 44.799 301.868 44.6174 301.293 44.5923V46.9222C301.293 48.2751 301.332 49.1958 301.408 49.6843C301.498 50.1603 301.619 50.4609 301.773 50.5862C302.079 50.8242 302.552 50.9432 303.192 50.9432L303.23 51.1687H298.091L298.129 50.9432C298.755 50.9432 299.216 50.8305 299.51 50.605C299.753 50.4171 299.893 49.8033 299.932 48.7636C299.957 48.3502 299.97 47.7365 299.97 46.9222V42.1685C299.97 40.7781 299.932 39.8574 299.855 39.4065C299.778 38.9555 299.663 38.6737 299.51 38.5609C299.216 38.348 298.755 38.2415 298.129 38.2415L298.091 38.016H302.54C305.761 38.016 307.372 39.0808 307.372 41.2102C307.372 42.1247 307.04 42.895 306.375 43.5213C305.723 44.1351 304.93 44.4921 303.997 44.5923C304.93 45.131 305.793 46.1206 306.586 47.5611C306.893 48.1248 307.219 48.6634 307.564 49.177C308.318 50.3545 309.29 50.9432 310.479 50.9432L310.517 51.1687H307.852ZM301.293 38.4482V44.2166H302.501C303.473 44.2166 304.278 43.9723 304.918 43.4838C305.557 42.9952 305.876 42.2687 305.876 41.3042C305.876 39.4002 304.764 38.4482 302.54 38.4482H301.293Z" fill="url(#paint3_linear_1_370)"/>
<path d="M317.62 42.2625V46.9222C317.62 48.2626 317.658 49.177 317.735 49.6655C317.825 50.154 317.946 50.4609 318.1 50.5862C318.394 50.8242 318.86 50.9432 319.499 50.9432L319.538 51.1687H314.36L314.398 50.9432C314.718 50.9432 314.967 50.9307 315.146 50.9056C315.325 50.8806 315.491 50.8117 315.645 50.6989C315.811 50.5862 315.926 50.4609 315.99 50.3231C316.067 50.1728 316.131 49.9286 316.182 49.5904C316.246 49.1519 316.278 48.2626 316.278 46.9222V42.2625C316.278 40.9597 316.239 40.0516 316.163 39.538C316.086 39.0244 315.971 38.705 315.817 38.5797C315.511 38.3417 315.038 38.2227 314.398 38.2227L314.36 38.016H319.538L319.499 38.2227C318.86 38.2227 318.394 38.3417 318.1 38.5797C317.78 38.8428 317.62 40.0703 317.62 42.2625Z" fill="url(#paint4_linear_1_370)"/>
<path d="M334.958 51.1687H325.293L325.331 50.9432C325.971 50.9432 326.437 50.8242 326.731 50.5862C327.051 50.3231 327.211 49.1018 327.211 46.9222V42.2625C327.211 40.9221 327.166 40.0077 327.077 39.5192C327 39.0181 326.885 38.705 326.731 38.5797C326.437 38.3417 325.971 38.2227 325.331 38.2227L325.293 38.016H334.249V40.7217L334.019 40.6841C334.019 39.8449 333.565 39.2624 332.657 38.9367C331.762 38.611 330.388 38.4482 328.534 38.4482V44.3669C329.761 44.3669 330.643 44.3042 331.18 44.179C331.717 44.0537 332.062 43.8658 332.216 43.6153C332.369 43.3522 332.446 42.9201 332.446 42.3188L332.657 42.2812V46.8471L332.446 46.8095C332.446 46.1957 332.369 45.7636 332.216 45.513C332.062 45.2625 331.717 45.0809 331.18 44.9681C330.643 44.8429 329.761 44.7802 328.534 44.7802V47.2041C328.534 48.5319 328.579 49.415 328.668 49.8534C328.77 50.2918 328.988 50.5862 329.32 50.7365C332.925 50.7365 334.728 49.9849 334.728 48.4818L334.958 48.4442V51.1687Z" fill="url(#paint5_linear_1_370)"/>
<path d="M341.559 47.1853C341.559 48.4004 341.859 49.3273 342.46 49.9661C343.074 50.605 343.822 50.9244 344.704 50.9244C345.586 50.9244 346.309 50.7177 346.871 50.3044C347.434 49.8785 347.715 49.2146 347.715 48.3127C347.715 47.4985 347.274 46.7719 346.392 46.1331C346.008 45.8575 345.58 45.5882 345.107 45.3251C344.634 45.0496 344.161 44.7677 343.688 44.4796C343.215 44.1915 342.786 43.8909 342.403 43.5777C341.521 42.8512 341.08 42.0057 341.08 41.0411C341.08 40.0641 341.438 39.2875 342.154 38.7112C342.882 38.135 343.841 37.8469 345.03 37.8469C346.232 37.8469 347.344 38.1037 348.367 38.6173C348.367 39.2436 348.271 40.3209 348.079 41.8491L347.792 41.7739C347.792 40.5965 347.497 39.7196 346.909 39.1434C346.321 38.5547 345.644 38.2603 344.877 38.2603C344.122 38.2603 343.515 38.4795 343.055 38.9179C342.595 39.3438 342.364 39.8511 342.364 40.4399C342.364 41.0286 342.524 41.5359 342.844 41.9618C343.176 42.3752 343.585 42.7197 344.071 42.9952C344.57 43.2708 345.107 43.5777 345.682 43.9159C346.257 44.2416 346.788 44.5673 347.274 44.893C347.772 45.2061 348.181 45.6195 348.501 46.1331C348.833 46.6467 349 47.2229 349 47.8617C349 49.0141 348.578 49.8847 347.734 50.4735C346.903 51.0622 345.899 51.3566 344.723 51.3566C344.071 51.3566 343.4 51.2564 342.71 51.0559C342.032 50.8555 341.476 50.5611 341.041 50.1728C341.041 49.3711 341.118 48.3565 341.271 47.1289L341.559 47.1853Z" fill="url(#paint6_linear_1_370)"/>
<path fill-rule="evenodd" clip-rule="evenodd" d="M270.004 49.9661C269.403 49.3273 269.103 48.4004 269.103 47.1853L268.815 47.1289C268.81 47.1708 268.805 47.2123 268.8 47.2537C268.657 48.4254 268.585 49.3985 268.585 50.1728C269.02 50.5611 269.576 50.8555 270.254 51.0559C270.944 51.2564 271.615 51.3566 272.267 51.3566C273.443 51.3566 274.447 51.0622 275.278 50.4735C276.122 49.8847 276.544 49.0141 276.544 47.8617C276.544 47.2229 276.377 46.6467 276.045 46.1331C275.725 45.6195 275.316 45.2061 274.818 44.893C274.332 44.5673 273.801 44.2416 273.226 43.9159C272.651 43.5777 272.114 43.2708 271.615 42.9952C271.129 42.7197 270.72 42.3752 270.388 41.9618C270.068 41.5359 269.908 41.0286 269.908 40.4399C269.908 39.8511 270.138 39.3438 270.599 38.9179C271.059 38.4795 271.666 38.2603 272.421 38.2603C273.188 38.2603 273.865 38.5547 274.453 39.1434C275.041 39.7196 275.335 40.5965 275.335 41.7739L275.623 41.8491C275.628 41.8069 275.634 41.765 275.639 41.7235C275.82 40.2617 275.911 39.2263 275.911 38.6173C274.888 38.1037 273.776 37.8469 272.574 37.8469C271.385 37.8469 270.426 38.135 269.697 38.7112C268.981 39.2875 268.623 40.0641 268.623 41.0411C268.623 42.0057 269.065 42.8512 269.947 43.5777C270.33 43.8909 270.759 44.1915 271.232 44.4796C271.705 44.7677 272.178 45.0496 272.651 45.3251C273.124 45.5882 273.552 45.8575 273.935 46.1331C274.818 46.7719 275.259 47.4985 275.259 48.3127C275.259 49.2146 274.977 49.8785 274.415 50.3044C273.852 50.7177 273.13 50.9244 272.248 50.9244C271.366 50.9244 270.618 50.605 270.004 49.9661ZM272.715 45.2168C273.191 45.4817 273.623 45.7535 274.011 46.0321L274.011 46.0324C274.915 46.6866 275.387 47.4466 275.387 48.3127C275.387 49.2409 275.096 49.9472 274.493 50.4035L274.492 50.404L274.492 50.4046C273.902 50.8379 273.151 51.0497 272.248 51.0497C271.33 51.0497 270.549 50.7156 269.911 50.052L269.91 50.051C269.298 49.3999 268.992 48.4728 268.976 47.2881L268.926 47.2783C268.787 48.4148 268.716 49.3607 268.713 50.117C269.125 50.4725 269.649 50.7463 270.29 50.936C270.97 51.1332 271.629 51.2313 272.267 51.2313C273.42 51.2313 274.397 50.943 275.203 50.372L275.204 50.3714C276.009 49.8096 276.416 48.98 276.416 47.8617C276.416 47.2454 276.256 46.6927 275.937 46.2002L275.936 46.1992L275.936 46.1983C275.626 45.7003 275.23 45.301 274.749 44.9984L274.747 44.9974L274.745 44.9964C274.263 44.6727 273.735 44.3487 273.162 44.0244L273.161 44.0239L273.16 44.0233C272.586 43.6856 272.05 43.3793 271.552 43.1043L271.551 43.1037C271.052 42.8205 270.63 42.4657 270.287 42.0393L270.286 42.0377L270.285 42.036C269.947 41.5862 269.78 41.0521 269.78 40.4399C269.78 39.8149 270.026 39.2755 270.51 38.8275C270.998 38.3628 271.64 38.135 272.421 38.135C273.225 38.135 273.935 38.4454 274.544 39.0553C275.148 39.6473 275.447 40.5291 275.463 41.6775L275.514 41.6909C275.686 40.2989 275.775 39.3014 275.782 38.6941C274.798 38.2131 273.729 37.9722 272.574 37.9722C271.406 37.9722 270.479 38.2548 269.778 38.8084C269.095 39.3588 268.751 40.0985 268.751 41.0411C268.751 41.9621 269.17 42.7744 270.029 43.4816C270.407 43.7906 270.831 44.0879 271.299 44.3732C271.771 44.6607 272.243 44.9419 272.715 45.2168ZM283.838 50.5862C283.544 50.8242 283.078 50.9432 282.438 50.9432L282.4 51.1687H292.065V48.4442L291.835 48.4818C291.835 49.9849 290.032 50.7365 286.427 50.7365C286.095 50.5862 285.877 50.2918 285.775 49.8534C285.686 49.415 285.641 48.5319 285.641 47.2041V44.7802C285.684 44.7802 285.726 44.7803 285.769 44.7805C286.93 44.7847 287.769 44.8473 288.287 44.9681C288.824 45.0809 289.169 45.2625 289.323 45.513C289.476 45.7636 289.553 46.1957 289.553 46.8095L289.764 46.8471V42.2812L289.553 42.3188C289.553 42.9201 289.476 43.3522 289.323 43.6153C289.169 43.8658 288.824 44.0537 288.287 44.179C287.769 44.2999 286.93 44.3624 285.769 44.3666C285.726 44.3668 285.684 44.3669 285.641 44.3669V38.4482C285.684 38.4482 285.726 38.4483 285.769 38.4484C287.558 38.4558 288.89 38.6186 289.764 38.9367C290.672 39.2624 291.125 39.8449 291.125 40.6841L291.356 40.7217V38.016H282.4L282.438 38.2227C283.078 38.2227 283.544 38.3417 283.838 38.5797C283.992 38.705 284.107 39.0181 284.183 39.5192C284.273 40.0077 284.318 40.9221 284.318 42.2625V46.9222C284.318 49.1018 284.158 50.3231 283.838 50.5862ZM284.31 39.4989C284.401 40.0003 284.445 40.9247 284.445 42.2625V46.9222C284.445 48.014 284.406 48.8704 284.325 49.4888C284.284 49.7979 284.233 50.0515 284.17 50.247C284.108 50.438 284.029 50.5925 283.92 50.6821L283.92 50.6828C283.677 50.8789 283.34 50.9957 282.917 51.0434H291.937V48.7917C291.89 49.0693 291.777 49.3212 291.598 49.5455C291.355 49.8487 290.997 50.0946 290.533 50.2881C289.608 50.6739 288.235 50.8618 286.427 50.8618H286.399L286.373 50.8502C285.996 50.6796 285.759 50.347 285.65 49.8813L285.65 49.8796L285.65 49.878C285.557 49.4254 285.513 48.5298 285.513 47.2041V44.655H285.641C286.868 44.655 287.763 44.7172 288.315 44.8459C288.86 44.9604 289.251 45.1516 289.432 45.4486C289.53 45.6079 289.597 45.8247 289.636 46.0944V43.0247C289.597 43.293 289.53 43.5119 289.434 43.6774L289.433 43.6786L289.432 43.6797C289.251 43.9757 288.861 44.1738 288.317 44.3008C287.764 44.4298 286.869 44.4921 285.641 44.4921H285.513V38.3229H285.641C287.498 38.3229 288.891 38.4855 289.808 38.8192C290.278 38.9879 290.641 39.2269 290.887 39.5418C291.068 39.774 291.18 40.0423 291.228 40.3439V38.1413H283.057C283.415 38.1975 283.705 38.3091 283.92 38.4831L283.92 38.4835C284.023 38.5672 284.099 38.7015 284.16 38.8661C284.221 39.0329 284.271 39.2447 284.31 39.4989ZM301.421 44.6005C301.949 44.6453 302.45 44.8242 302.923 45.1372C303.435 45.4755 303.856 45.8888 304.189 46.3774C304.521 46.8659 304.854 47.392 305.186 47.9557C305.518 48.5068 305.806 49.0204 306.049 49.4964C306.305 49.9724 306.586 50.3732 306.893 50.6989C307.212 51.0121 307.532 51.1687 307.852 51.1687H310.517L310.479 50.9432C309.29 50.9432 308.318 50.3545 307.564 49.177C307.219 48.6634 306.893 48.1248 306.586 47.5611C305.842 46.2095 305.037 45.2549 304.169 44.6973C304.112 44.6606 304.055 44.6256 303.997 44.5923C304.065 44.5851 304.132 44.5764 304.198 44.5665C305.045 44.4389 305.77 44.0906 306.375 43.5213C307.04 42.895 307.372 42.1247 307.372 41.2102C307.372 39.0808 305.761 38.016 302.54 38.016H298.091L298.129 38.2415C298.755 38.2415 299.216 38.348 299.51 38.5609C299.663 38.6737 299.778 38.9555 299.855 39.4065C299.932 39.8574 299.97 40.7781 299.97 42.1685V46.9222C299.97 47.7365 299.957 48.3502 299.932 48.7636C299.893 49.8033 299.753 50.4171 299.51 50.605C299.216 50.8305 298.755 50.9432 298.129 50.9432L298.091 51.1687H303.23L303.192 50.9432C302.552 50.9432 302.079 50.8242 301.773 50.5862C301.619 50.4609 301.498 50.1603 301.408 49.6843C301.332 49.1958 301.293 48.2751 301.293 46.9222V44.5923C301.336 44.5942 301.379 44.5969 301.421 44.6005ZM302.711 51.0434C302.287 50.9958 301.944 50.8791 301.693 50.6844L301.692 50.6834L301.691 50.6824C301.59 50.6003 301.512 50.4714 301.448 50.3129C301.383 50.1523 301.328 49.9495 301.282 49.707L301.282 49.7052L301.282 49.7033C301.203 49.204 301.165 48.2741 301.165 46.9222V44.4614L301.299 44.4672C301.899 44.4934 302.465 44.6833 302.995 45.0334C303.519 45.3805 303.953 45.8054 304.295 46.3079C304.629 46.7987 304.963 47.3269 305.296 47.8925C305.63 48.445 305.918 48.9607 306.163 49.4393C306.414 49.9061 306.688 50.2965 306.985 50.6121C307.29 50.9104 307.578 51.0434 307.852 51.0434H310.055C309.006 50.9166 308.139 50.3096 307.456 49.2448C307.109 48.7282 306.782 48.1866 306.473 47.6201C305.686 46.1899 304.837 45.2226 303.932 44.7003L303.601 44.5089L303.983 44.4678C304.89 44.3705 305.656 44.0249 306.286 43.431C306.926 42.8286 307.244 42.091 307.244 41.2102C307.244 40.1814 306.858 39.4245 306.093 38.9184C305.318 38.4065 304.14 38.1413 302.54 38.1413H298.623C299.025 38.1854 299.349 38.2889 299.586 38.4602L299.586 38.4607C299.69 38.5369 299.768 38.6599 299.83 38.8103C299.892 38.9627 299.942 39.1555 299.981 39.3859C300.06 39.8488 300.098 40.78 300.098 42.1685V46.9222C300.098 47.7361 300.085 48.3524 300.059 48.7697C300.04 49.2922 299.995 49.7138 299.922 50.0312C299.851 50.3411 299.748 50.5804 299.589 50.7033L299.588 50.7036C299.349 50.8873 299.02 50.9975 298.611 51.0434H302.711ZM301.165 38.3229H302.54C303.668 38.3229 304.538 38.5639 305.126 39.0679C305.718 39.5746 306.004 40.3281 306.004 41.3042C306.004 42.2981 305.673 43.0651 304.996 43.5825C304.33 44.0915 303.496 44.3418 302.501 44.3418H301.165V38.3229ZM301.293 44.2166V38.4482H302.54C304.764 38.4482 305.876 39.4002 305.876 41.3042C305.876 42.2687 305.557 42.9952 304.918 43.4838C304.278 43.9723 303.473 44.2166 302.501 44.2166H301.293ZM317.609 49.6861L317.609 49.6846C317.53 49.1852 317.492 48.2617 317.492 46.9222V42.2625C317.492 41.1645 317.532 40.3034 317.613 39.6818C317.654 39.3713 317.705 39.1165 317.768 38.9202C317.829 38.7286 317.908 38.5735 318.017 38.4838L318.018 38.4831C318.233 38.3091 318.523 38.1975 318.881 38.1413H315.019C315.379 38.1975 315.674 38.3088 315.897 38.4815L315.898 38.4825L315.899 38.4835C316.002 38.5676 316.079 38.7042 316.139 38.8715C316.201 39.0418 316.25 39.2588 316.289 39.5198C316.367 40.0435 316.406 40.96 316.406 42.2625V46.9222C316.406 48.261 316.374 49.1593 316.308 49.6081L316.308 49.6087C316.257 49.948 316.191 50.2081 316.105 50.3771C316.03 50.5394 315.897 50.6797 315.72 50.8006C315.551 50.9243 315.365 51.0015 315.164 51.0296C315.128 51.0347 315.089 51.0393 315.047 51.0434H319.02C318.598 50.9957 318.26 50.8789 318.018 50.6828L318.018 50.6824C317.917 50.5999 317.838 50.4687 317.774 50.3074C317.709 50.1437 317.655 49.9363 317.609 49.6876L317.609 49.6861ZM314.36 51.1687L314.398 50.9432C314.718 50.9432 314.967 50.9307 315.146 50.9056C315.325 50.8806 315.491 50.8117 315.645 50.6989C315.811 50.5862 315.926 50.4609 315.99 50.3231C316.067 50.1728 316.131 49.9286 316.182 49.5904C316.246 49.1519 316.278 48.2626 316.278 46.9222V42.2625C316.278 40.9597 316.239 40.0516 316.163 39.538C316.086 39.0244 315.971 38.705 315.817 38.5797C315.511 38.3417 315.038 38.2227 314.398 38.2227L314.36 38.016H319.538L319.499 38.2227C318.86 38.2227 318.394 38.3417 318.1 38.5797C317.78 38.8428 317.62 40.0703 317.62 42.2625V46.9222C317.62 48.2626 317.658 49.177 317.735 49.6655C317.825 50.154 317.946 50.4609 318.1 50.5862C318.394 50.8242 318.86 50.9432 319.499 50.9432L319.538 51.1687H314.36ZM326.731 50.5862C326.437 50.8242 325.971 50.9432 325.331 50.9432L325.293 51.1687H334.958V48.4442L334.728 48.4818C334.728 49.9849 332.925 50.7365 329.32 50.7365C328.988 50.5862 328.77 50.2918 328.668 49.8534C328.579 49.415 328.534 48.5319 328.534 47.2041V44.7802C328.577 44.7802 328.62 44.7803 328.662 44.7805C329.823 44.7847 330.662 44.8473 331.18 44.9681C331.717 45.0809 332.062 45.2625 332.216 45.513C332.369 45.7636 332.446 46.1957 332.446 46.8095L332.657 46.8471V42.2812L332.446 42.3188C332.446 42.9201 332.369 43.3522 332.216 43.6153C332.062 43.8658 331.717 44.0537 331.18 44.179C330.662 44.2999 329.823 44.3624 328.662 44.3666C328.62 44.3668 328.577 44.3669 328.534 44.3669V38.4482C328.577 38.4482 328.619 38.4483 328.662 38.4484C330.451 38.4558 331.783 38.6186 332.657 38.9367C333.565 39.2624 334.019 39.8449 334.019 40.6841L334.249 40.7217V38.016H325.293L325.331 38.2227C325.971 38.2227 326.437 38.3417 326.731 38.5797C326.885 38.705 327 39.0181 327.077 39.5192C327.166 40.0077 327.211 40.9221 327.211 42.2625V46.9222C327.211 49.1018 327.051 50.3231 326.731 50.5862ZM327.203 39.4988C327.294 40.0003 327.339 40.9247 327.339 42.2625V46.9222C327.339 48.014 327.299 48.8704 327.218 49.4888C327.177 49.7979 327.126 50.0515 327.063 50.247C327.001 50.438 326.922 50.5925 326.814 50.6821L326.813 50.6828C326.57 50.8789 326.233 50.9957 325.81 51.0434H334.83V48.7918C334.783 49.0693 334.67 49.3212 334.491 49.5455C334.248 49.8487 333.89 50.0946 333.426 50.2881C332.501 50.6739 331.128 50.8618 329.32 50.8618H329.292L329.267 50.8502C328.889 50.6796 328.652 50.347 328.544 49.8813L328.543 49.8796L328.543 49.878C328.45 49.4254 328.406 48.5298 328.406 47.2041V44.655H328.534C329.761 44.655 330.656 44.7172 331.209 44.846C331.753 44.9604 332.144 45.1516 332.326 45.4486C332.423 45.6079 332.49 45.8247 332.529 46.0944V43.0247C332.49 43.293 332.423 43.5119 332.327 43.6774L332.326 43.6786L332.326 43.6797C332.144 43.9757 331.755 44.1738 331.21 44.3008C330.657 44.4298 329.762 44.4921 328.534 44.4921H328.406V38.3229H328.534C330.391 38.3229 331.784 38.4855 332.701 38.8191C333.171 38.9878 333.534 39.2268 333.78 39.5418C333.961 39.774 334.074 40.0423 334.121 40.3439V38.1413H325.95C326.308 38.1975 326.598 38.3091 326.813 38.4831L326.813 38.4835C326.916 38.5672 326.993 38.7015 327.053 38.8661C327.114 39.0329 327.164 39.2447 327.203 39.4988ZM346.871 50.3044C346.309 50.7177 345.586 50.9244 344.704 50.9244C343.822 50.9244 343.074 50.605 342.46 49.9661C341.859 49.3273 341.559 48.4004 341.559 47.1853L341.271 47.1289C341.266 47.1708 341.261 47.2123 341.256 47.2537C341.113 48.4254 341.041 49.3985 341.041 50.1728C341.476 50.5611 342.032 50.8555 342.71 51.0559C343.4 51.2564 344.071 51.3566 344.723 51.3566C345.899 51.3566 346.903 51.0622 347.734 50.4735C348.578 49.8847 349 49.0141 349 47.8617C349 47.2229 348.833 46.6467 348.501 46.1331C348.181 45.6195 347.772 45.2061 347.274 44.893C346.788 44.5673 346.257 44.2416 345.682 43.9159C345.107 43.5777 344.57 43.2708 344.071 42.9952C343.585 42.7197 343.176 42.3752 342.844 41.9618C342.524 41.5359 342.364 41.0286 342.364 40.4399C342.364 39.8511 342.595 39.3438 343.055 38.9179C343.515 38.4795 344.122 38.2603 344.877 38.2603C345.644 38.2603 346.321 38.5547 346.909 39.1434C347.497 39.7196 347.792 40.5965 347.792 41.7739L348.079 41.8491C348.084 41.8069 348.09 41.765 348.095 41.7235C348.276 40.2617 348.367 39.2263 348.367 38.6173C347.344 38.1037 346.232 37.8469 345.03 37.8469C343.841 37.8469 342.882 38.135 342.154 38.7112C341.438 39.2875 341.08 40.0641 341.08 41.0411C341.08 42.0057 341.521 42.8512 342.403 43.5777C342.786 43.8909 343.215 44.1915 343.688 44.4796C344.161 44.7677 344.634 45.0496 345.107 45.3251C345.58 45.5882 346.008 45.8575 346.392 46.1331C347.274 46.7719 347.715 47.4985 347.715 48.3127C347.715 49.2146 347.434 49.8785 346.871 50.3044ZM345.171 45.2169C345.647 45.4818 346.079 45.7535 346.467 46.0321L346.468 46.0324C347.371 46.6866 347.843 47.4466 347.843 48.3127C347.843 49.2409 347.552 49.9472 346.949 50.4035L346.948 50.404L346.948 50.4046C346.358 50.8379 345.607 51.0497 344.704 51.0497C343.786 51.0497 343.005 50.7156 342.367 50.052L342.366 50.051C341.754 49.3999 341.449 48.4728 341.432 47.2881L341.382 47.2783C341.243 48.4148 341.173 49.3607 341.169 50.117C341.581 50.4724 342.105 50.7463 342.746 50.9359C343.426 51.1332 344.085 51.2313 344.723 51.2313C345.877 51.2313 346.853 50.943 347.659 50.372L347.66 50.3714C348.465 49.8096 348.872 48.98 348.872 47.8617C348.872 47.2454 348.712 46.6927 348.393 46.2002L348.393 46.1992L348.392 46.1983C348.082 45.7003 347.686 45.301 347.205 44.9984L347.203 44.9974L347.202 44.9964C346.719 44.6727 346.191 44.3487 345.618 44.0244L345.617 44.0239L345.616 44.0233C345.042 43.6856 344.506 43.3793 344.008 43.1043L344.007 43.1037C343.508 42.8205 343.086 42.4657 342.743 42.0393L342.742 42.0377L342.741 42.036C342.403 41.5862 342.237 41.0521 342.237 40.4399C342.237 39.8149 342.483 39.2754 342.966 38.8274C343.455 38.3628 344.096 38.135 344.877 38.135C345.681 38.135 346.391 38.4453 347 39.0553C347.604 39.6473 347.903 40.5291 347.919 41.6775L347.97 41.6909C348.142 40.2989 348.231 39.3014 348.239 38.6941C347.254 38.2131 346.185 37.9722 345.03 37.9722C343.863 37.9722 342.935 38.2548 342.234 38.8084C341.551 39.3588 341.207 40.0985 341.207 41.0411C341.207 41.9622 341.626 42.7746 342.485 43.4818C342.864 43.7908 343.287 44.0879 343.755 44.3732C344.227 44.6607 344.699 44.9419 345.171 45.2169Z" fill="url(#paint7_linear_1_370)"/>
<path d="M63.3466 51.2722C62.5207 51.2722 61.7906 51.1283 61.1562 50.8404C60.5338 50.5526 60.043 50.1508 59.6839 49.6351C59.3248 49.1193 59.1333 48.5436 59.1094 47.9079H60.438C60.4979 48.5196 60.7672 49.0593 61.246 49.5271C61.7248 49.9829 62.425 50.2108 63.3466 50.2108C64.1965 50.2108 64.8668 49.9949 65.3576 49.5631C65.8603 49.1193 66.1116 48.5616 66.1116 47.8899C66.1116 47.3502 65.974 46.9184 65.6987 46.5946C65.4234 46.2588 65.0822 46.0129 64.6753 45.857C64.2683 45.6891 63.7057 45.5092 62.9876 45.3172C62.1497 45.0894 61.4854 44.8675 60.9946 44.6516C60.5038 44.4357 60.0849 44.0999 59.7378 43.6441C59.3907 43.1883 59.2171 42.5706 59.2171 41.791C59.2171 41.1434 59.3847 40.5677 59.7198 40.0639C60.055 39.5482 60.5278 39.1464 61.1382 38.8585C61.7487 38.5707 62.4489 38.4268 63.2389 38.4268C64.4 38.4268 65.3336 38.7146 66.0398 39.2903C66.758 39.854 67.171 40.5857 67.2787 41.4852H65.9141C65.8304 40.9695 65.5491 40.5137 65.0703 40.1179C64.5915 39.7101 63.9451 39.5062 63.1312 39.5062C62.3771 39.5062 61.7487 39.7101 61.246 40.1179C60.7432 40.5137 60.4919 41.0594 60.4919 41.7551C60.4919 42.2828 60.6295 42.7086 60.9048 43.0324C61.1801 43.3562 61.5213 43.6021 61.9282 43.77C62.3472 43.938 62.9098 44.1179 63.616 44.3098C64.4299 44.5376 65.0882 44.7655 65.591 44.9934C66.0937 45.2093 66.5186 45.5451 66.8657 46.0009C67.2129 46.4567 67.3864 47.0684 67.3864 47.836C67.3864 48.4237 67.2308 48.9814 66.9196 49.5091C66.6084 50.0368 66.1476 50.4626 65.5371 50.7865C64.9266 51.1103 64.1965 51.2722 63.3466 51.2722Z" fill="#333333"/>
<path d="M74.6628 38.5707V51.1463H73.406V38.5707H74.6628Z" fill="#333333"/>
<path d="M90.9747 42.2408C90.6156 41.4132 90.065 40.7656 89.3229 40.2978C88.5928 39.818 87.731 39.5782 86.7375 39.5782C85.8038 39.5782 84.966 39.7941 84.2238 40.2258C83.4817 40.6576 82.8952 41.2753 82.4643 42.0789C82.0334 42.8705 81.8179 43.794 81.8179 44.8495C81.8179 45.905 82.0334 46.8345 82.4643 47.6381C82.8952 48.4417 83.4817 49.0593 84.2238 49.4911C84.966 49.9229 85.8038 50.1388 86.7375 50.1388C87.6113 50.1388 88.3953 49.9529 89.0895 49.5811C89.7957 49.1973 90.3583 48.6575 90.7772 47.9619C91.2081 47.2543 91.4535 46.4327 91.5134 45.4972H86.2347V44.4717H92.842V45.3892C92.7822 46.4927 92.4829 47.4941 91.9443 48.3937C91.4056 49.2812 90.6815 49.9829 89.7718 50.4986C88.8741 51.0143 87.8626 51.2722 86.7375 51.2722C85.5764 51.2722 84.5231 51.0024 83.5775 50.4626C82.6319 49.9109 81.8838 49.1493 81.3332 48.1778C80.7945 47.1943 80.5252 46.0849 80.5252 44.8495C80.5252 43.6141 80.7945 42.5107 81.3332 41.5392C81.8838 40.5557 82.6319 39.7941 83.5775 39.2543C84.5231 38.7026 85.5764 38.4268 86.7375 38.4268C88.0781 38.4268 89.2511 38.7626 90.2566 39.4342C91.262 40.1059 91.9922 41.0414 92.447 42.2408H90.9747Z" fill="#333333"/>
<path d="M108.197 51.1463H106.94L99.992 40.5677V51.1463H98.7352V38.5707H99.992L106.94 49.1313V38.5707H108.197V51.1463Z" fill="#333333"/>
<path d="M121.906 48.1598H116.197L115.102 51.1463H113.773L118.351 38.7326H119.77L124.33 51.1463H123.002L121.906 48.1598ZM121.529 47.1163L119.052 40.3158L116.574 47.1163H121.529Z" fill="#333333"/>
<path d="M137.282 38.5707V39.6142H133.798V51.1463H132.542V39.6142H129.04V38.5707H137.282Z" fill="#333333"/>
<path d="M144.06 38.5707V46.4867C144.06 47.734 144.353 48.6575 144.94 49.2572C145.538 49.8569 146.352 50.1568 147.382 50.1568C148.411 50.1568 149.213 49.8629 149.787 49.2752C150.374 48.6755 150.667 47.746 150.667 46.4867V38.5707H151.924V46.4687C151.924 48.0639 151.499 49.2632 150.649 50.0668C149.811 50.8704 148.716 51.2722 147.364 51.2722C146.011 51.2722 144.91 50.8704 144.06 50.0668C143.222 49.2632 142.803 48.0639 142.803 46.4687V38.5707H144.06Z" fill="#333333"/>
<path d="M164.997 51.1463L161.891 45.893H159.575V51.1463H158.318V38.5707H162.089C163.489 38.5707 164.548 38.9065 165.267 39.5782C165.997 40.2498 166.362 41.1314 166.362 42.2228C166.362 43.1344 166.099 43.914 165.572 44.5616C165.057 45.1973 164.291 45.6111 163.274 45.803L166.506 51.1463H164.997ZM159.575 44.8675H162.107C163.088 44.8675 163.824 44.6276 164.315 44.1478C164.818 43.6681 165.069 43.0264 165.069 42.2228C165.069 41.3952 164.83 40.7596 164.351 40.3158C163.872 39.86 163.118 39.6321 162.089 39.6321H159.575V44.8675Z" fill="#333333"/>
<path d="M173.704 39.5962V44.2918H178.462V45.3352H173.704V50.1028H179V51.1463H172.447V38.5527H179V39.5962H173.704Z" fill="#333333"/>
<path d="M47.9541 38.7918C47.591 38.6816 47.1775 38.8557 46.998 39.1935C46.0635 40.9783 44.5717 43.1185 42.843 43.0332C40.4488 42.9513 38.1953 39.0015 37.5266 37.4871C37.5123 37.4516 37.4869 37.4303 37.4691 37.4052C37.4333 37.3484 37.3972 37.2879 37.347 37.2381C37.3112 37.2026 37.2681 37.1776 37.2249 37.1528C37.1816 37.128 37.1492 37.0853 37.1026 37.064H37.0845C37.0341 37.0427 36.9767 37.0355 36.9193 37.0285C36.8689 37.0176 36.8258 37 36.7754 37C36.725 37 36.6819 37.0176 36.6352 37.0283C36.5741 37.0355 36.5166 37.0424 36.4662 37.0637H36.4447C36.4016 37.0851 36.3727 37.1205 36.3334 37.1419C36.2902 37.1741 36.2398 37.1954 36.2002 37.2381C36.1498 37.2879 36.1175 37.3447 36.0816 37.4052C36.0636 37.43 36.0385 37.4513 36.0242 37.4871C35.352 39.0015 33.102 42.9513 30.7115 43.0332C28.9935 43.1326 27.4909 40.9783 26.5527 39.1935C26.3729 38.8523 25.9632 38.6779 25.5894 38.7918C25.2156 38.9019 24.9676 39.261 25.0034 39.6451L26.1718 51.9639C26.2114 52.3836 26.5637 52.7 26.9915 52.7L36.7754 52.6998H46.5631C46.9836 52.6998 47.3431 52.3833 47.379 51.9637L48.5471 39.6448C48.5795 39.2609 48.3353 38.9019 47.9542 38.7917L47.9541 38.7918ZM45.8188 51.0821H27.7389L26.9481 42.7165C28.1378 44.0532 29.421 44.7218 30.7689 44.6613C33.5547 44.5616 35.6935 41.5326 36.7753 39.6163C37.8572 41.5326 39.9959 44.5616 42.7815 44.6575C44.1474 44.718 45.4126 44.0497 46.6023 42.7127L45.8188 51.0821Z" fill="url(#paint8_linear_1_370)"/>
<line x1="202.5" y1="90" x2="202.5" stroke="#DDDDDD"/>
<line x1="392.5" y1="90" x2="392.5" stroke="#DDDDDD"/>
<line x1="0.5" y1="90" x2="0.5" stroke="#DDDDDD"/>
<defs>
<linearGradient id="paint0_linear_1_370" x1="254.041" y1="33.3438" x2="254.041" y2="55.8598" gradientUnits="userSpaceOnUse">
<stop/>
<stop offset="1"/>
</linearGradient>
<linearGradient id="paint1_linear_1_370" x1="308.792" y1="37.8469" x2="308.792" y2="51.3566" gradientUnits="userSpaceOnUse">
<stop/>
<stop offset="1"/>
</linearGradient>
<linearGradient id="paint2_linear_1_370" x1="308.792" y1="37.8469" x2="308.792" y2="51.3566" gradientUnits="userSpaceOnUse">
<stop/>
<stop offset="1"/>
</linearGradient>
<linearGradient id="paint3_linear_1_370" x1="308.792" y1="37.8469" x2="308.792" y2="51.3566" gradientUnits="userSpaceOnUse">
<stop/>
<stop offset="1"/>
</linearGradient>
<linearGradient id="paint4_linear_1_370" x1="308.792" y1="37.8469" x2="308.792" y2="51.3566" gradientUnits="userSpaceOnUse">
<stop/>
<stop offset="1"/>
</linearGradient>
<linearGradient id="paint5_linear_1_370" x1="308.792" y1="37.8469" x2="308.792" y2="51.3566" gradientUnits="userSpaceOnUse">
<stop/>
<stop offset="1"/>
</linearGradient>
<linearGradient id="paint6_linear_1_370" x1="308.792" y1="37.8469" x2="308.792" y2="51.3566" gradientUnits="userSpaceOnUse">
<stop/>
<stop offset="1"/>
</linearGradient>
<linearGradient id="paint7_linear_1_370" x1="308.792" y1="37.8469" x2="308.792" y2="51.3566" gradientUnits="userSpaceOnUse">
<stop/>
<stop offset="1"/>
</linearGradient>
<linearGradient id="paint8_linear_1_370" x1="25" y1="38.0467" x2="48.9612" y2="39.5959" gradientUnits="userSpaceOnUse">
<stop stop-color="#857D4C"/>
<stop offset="0.0808516" stop-color="#BD9A64"/>
<stop offset="0.510071" stop-color="#FBDE98"/>
<stop offset="0.897799" stop-color="#BD9A64"/>
<stop offset="1" stop-color="#857D4C"/>
</linearGradient>
</defs>
</svg>
