<svg width="22" height="18" viewBox="0 0 22 18" fill="none" xmlns="http://www.w3.org/2000/svg">
<path d="M15 17.0166V15.2599C15 14.3281 14.6313 13.4344 13.9749 12.7755C13.3185 12.1166 12.4283 11.7465 11.5 11.7465H4.5C3.57174 11.7465 2.6815 12.1166 2.02513 12.7755C1.36875 13.4344 1 14.3281 1 15.2599V17.0166" stroke="#888888" stroke-width="1.6" stroke-linecap="round" stroke-linejoin="round"/>
<path d="M8 8.23303C9.933 8.23303 11.5 6.66002 11.5 4.7196C11.5 2.77919 9.933 1.20618 8 1.20618C6.067 1.20618 4.5 2.77919 4.5 4.7196C4.5 6.66002 6.067 8.23303 8 8.23303Z" stroke="#888888" stroke-width="1.6" stroke-linecap="round" stroke-linejoin="round"/>
<path d="M20.25 17.0166V15.2599C20.2494 14.4814 19.9913 13.7252 19.5162 13.1099C19.0411 12.4947 18.3759 12.0552 17.625 11.8606" stroke="#888888" stroke-width="1.6" stroke-linecap="round" stroke-linejoin="round"/>
<path d="M14.125 1.32043C14.8779 1.51393 15.5451 1.95345 16.0217 2.56971C16.4982 3.18596 16.7568 3.94388 16.7568 4.724C16.7568 5.50411 16.4982 6.26204 16.0217 6.87829C15.5451 7.49454 14.8779 7.93406 14.125 8.12756" stroke="#888888" stroke-width="1.6" stroke-linecap="round" stroke-linejoin="round"/>
</svg>
