<svg width="66" height="12" viewBox="0 0 66 12" fill="none" xmlns="http://www.w3.org/2000/svg">
<path d="M64.8378 3.06685C64.7748 2.43292 64.4949 1.92874 63.9981 1.55432C63.5014 1.17989 62.8767 0.992681 62.1242 0.992681C61.594 0.992681 61.1269 1.08351 60.7228 1.26516C60.3225 1.44681 60.0074 1.6989 59.7775 2.02142C59.5514 2.34024 59.4383 2.70354 59.4383 3.11133C59.4383 3.41161 59.5032 3.67482 59.6329 3.90096C59.7627 4.1271 59.9369 4.32173 60.1556 4.48484C60.3781 4.64425 60.6227 4.78142 60.8897 4.89634C61.1603 5.01126 61.4328 5.10765 61.7071 5.1855L62.9082 5.53027C63.2715 5.63036 63.6348 5.75826 63.9981 5.91396C64.3614 6.06966 64.6932 6.26614 64.9935 6.5034C65.2975 6.73695 65.5403 7.02426 65.722 7.36532C65.9073 7.70267 66 8.10861 66 8.58313C66 9.1911 65.8425 9.73791 65.5273 10.2236C65.2122 10.7092 64.76 11.0947 64.1705 11.3802C63.5811 11.6619 62.8749 11.8028 62.0519 11.8028C61.2771 11.8028 60.6042 11.6749 60.0333 11.4191C59.4624 11.1596 59.0138 10.8019 58.6876 10.3459C58.3614 9.88991 58.1779 9.36164 58.1371 8.76107H59.2047C59.2418 9.20964 59.3901 9.58963 59.6496 9.90103C59.9091 10.2124 60.2465 10.4497 60.6617 10.6128C61.0769 10.7722 61.5403 10.8519 62.0519 10.8519C62.6191 10.8519 63.1232 10.7574 63.5644 10.5683C64.0093 10.3755 64.3577 10.1086 64.6098 9.76757C64.8656 9.4228 64.9935 9.02243 64.9935 8.56645C64.9935 8.1809 64.8934 7.85838 64.6932 7.59887C64.493 7.33566 64.2131 7.11509 63.8535 6.93714C63.4977 6.7592 63.0843 6.60164 62.6135 6.46448L61.2511 6.0641C60.3577 5.79718 59.6644 5.42832 59.1714 4.95751C58.6783 4.4867 58.4318 3.88613 58.4318 3.15582C58.4318 2.54413 58.5949 2.00659 58.9212 1.5432C59.2511 1.07609 59.6959 0.712789 60.2557 0.453286C60.8192 0.190077 61.4513 0.0584717 62.152 0.0584717C62.86 0.0584717 63.4865 0.188223 64.0315 0.447726C64.5765 0.707229 65.0083 1.06497 65.3272 1.52095C65.6497 1.97323 65.8221 2.48853 65.8443 3.06685H64.8378Z" fill="url(#paint0_linear_1_466)"/>
<path d="M46.2248 11.6083V0.219849H52.831V1.15406H47.2647V5.44141H52.4807V6.37562H47.2647V10.6741H52.9422V11.6083H46.2248Z" fill="url(#paint1_linear_1_466)"/>
<path d="M40.0651 0.219849V11.6083H39.0253V0.219849H40.0651Z" fill="url(#paint2_linear_1_466)"/>
<path d="M26.0148 11.6083V0.219849H29.6904C30.4986 0.219849 31.1733 0.366282 31.7146 0.659149C32.2595 0.948309 32.6692 1.35054 32.9435 1.86584C33.2215 2.37743 33.3605 2.96501 33.3605 3.6286C33.3605 4.29218 33.2215 4.87792 32.9435 5.3858C32.6692 5.89368 32.2614 6.29035 31.7201 6.57581C31.1789 6.86126 30.5079 7.00398 29.7071 7.00398H26.5764V6.05309H29.6793C30.2725 6.05309 30.7655 5.95485 31.1585 5.75837C31.5551 5.56189 31.8499 5.282 32.0426 4.9187C32.2391 4.55539 32.3374 4.12536 32.3374 3.6286C32.3374 3.13184 32.2391 2.6981 32.0426 2.32738C31.8462 1.95295 31.5496 1.66379 31.1529 1.4599C30.76 1.256 30.2632 1.15406 29.6626 1.15406H27.0546V11.6083H26.0148ZM31.0361 6.47015L33.8388 11.6083H32.6376L29.8628 6.47015H31.0361Z" fill="url(#paint3_linear_1_466)"/>
<path d="M13.5853 11.6083V0.219849H20.1915V1.15406H14.6252V5.44141H19.8412V6.37562H14.6252V10.6741H20.3027V11.6083H13.5853Z" fill="url(#paint4_linear_1_466)"/>
<path d="M6.78898 3.06685C6.72596 2.43292 6.44607 1.92874 5.94931 1.55432C5.45254 1.17989 4.82788 0.992681 4.07533 0.992681C3.5452 0.992681 3.0781 1.08351 2.67401 1.26516C2.27364 1.44681 1.95853 1.6989 1.72868 2.02142C1.50255 2.34024 1.38948 2.70354 1.38948 3.11133C1.38948 3.41161 1.45435 3.67482 1.5841 3.90096C1.71385 4.1271 1.88809 4.32173 2.10682 4.48484C2.32925 4.64425 2.57392 4.78142 2.84084 4.89634C3.11146 5.01126 3.38394 5.10765 3.65827 5.1855L4.8594 5.53027C5.2227 5.63036 5.586 5.75826 5.94931 5.91396C6.31261 6.06966 6.6444 6.26614 6.94468 6.5034C7.24867 6.73695 7.49149 7.02426 7.67314 7.36532C7.8585 7.70267 7.95118 8.10861 7.95118 8.58313C7.95118 9.1911 7.79363 9.73791 7.47852 10.2236C7.16341 10.7092 6.71113 11.0947 6.12169 11.3802C5.53225 11.6619 4.82603 11.8028 4.00304 11.8028C3.22824 11.8028 2.55538 11.6749 1.98448 11.4191C1.41357 11.1596 0.965005 10.8019 0.638773 10.3459C0.312541 9.88991 0.129036 9.36164 0.0882568 8.76107H1.15592C1.193 9.20964 1.34128 9.58963 1.60079 9.90103C1.86029 10.2124 2.19764 10.4497 2.61285 10.6128C3.02805 10.7722 3.49145 10.8519 4.00304 10.8519C4.57024 10.8519 5.07441 10.7574 5.51557 10.5683C5.96043 10.3755 6.3089 10.1086 6.56099 9.76757C6.81679 9.4228 6.94468 9.02243 6.94468 8.56645C6.94468 8.1809 6.84459 7.85838 6.6444 7.59887C6.44421 7.33566 6.16432 7.11509 5.80473 6.93714C5.44884 6.7592 5.03549 6.60164 4.56468 6.46448L3.20229 6.0641C2.30886 5.79718 1.61561 5.42832 1.12256 4.95751C0.629505 4.4867 0.382977 3.88613 0.382977 3.15582C0.382977 2.54413 0.546093 2.00659 0.872325 1.5432C1.20226 1.07609 1.64713 0.712789 2.20691 0.453286C2.7704 0.190077 3.40247 0.0584717 4.10313 0.0584717C4.8112 0.0584717 5.43772 0.188223 5.98267 0.447726C6.52763 0.707229 6.95951 1.06497 7.27833 1.52095C7.60085 1.97323 7.77324 2.48853 7.79548 3.06685H6.78898Z" fill="url(#paint5_linear_1_466)"/>
<defs>
<linearGradient id="paint0_linear_1_466" x1="3.56689" y1="0.0875473" x2="3.66042" y2="12.1034" gradientUnits="userSpaceOnUse">
<stop stop-color="#857D4C"/>
<stop offset="0.0808516" stop-color="#BD9A64"/>
<stop offset="0.510071" stop-color="#FBDE98"/>
<stop offset="0.897799" stop-color="#BD9A64"/>
<stop offset="1" stop-color="#857D4C"/>
</linearGradient>
<linearGradient id="paint1_linear_1_466" x1="3.56688" y1="0.0876616" x2="3.66041" y2="12.1035" gradientUnits="userSpaceOnUse">
<stop stop-color="#857D4C"/>
<stop offset="0.0808516" stop-color="#BD9A64"/>
<stop offset="0.510071" stop-color="#FBDE98"/>
<stop offset="0.897799" stop-color="#BD9A64"/>
<stop offset="1" stop-color="#857D4C"/>
</linearGradient>
<linearGradient id="paint2_linear_1_466" x1="3.56689" y1="0.0876616" x2="3.66041" y2="12.1035" gradientUnits="userSpaceOnUse">
<stop stop-color="#857D4C"/>
<stop offset="0.0808516" stop-color="#BD9A64"/>
<stop offset="0.510071" stop-color="#FBDE98"/>
<stop offset="0.897799" stop-color="#BD9A64"/>
<stop offset="1" stop-color="#857D4C"/>
</linearGradient>
<linearGradient id="paint3_linear_1_466" x1="3.56691" y1="0.0876616" x2="3.66044" y2="12.1035" gradientUnits="userSpaceOnUse">
<stop stop-color="#857D4C"/>
<stop offset="0.0808516" stop-color="#BD9A64"/>
<stop offset="0.510071" stop-color="#FBDE98"/>
<stop offset="0.897799" stop-color="#BD9A64"/>
<stop offset="1" stop-color="#857D4C"/>
</linearGradient>
<linearGradient id="paint4_linear_1_466" x1="3.56689" y1="0.0876616" x2="3.66042" y2="12.1035" gradientUnits="userSpaceOnUse">
<stop stop-color="#857D4C"/>
<stop offset="0.0808516" stop-color="#BD9A64"/>
<stop offset="0.510071" stop-color="#FBDE98"/>
<stop offset="0.897799" stop-color="#BD9A64"/>
<stop offset="1" stop-color="#857D4C"/>
</linearGradient>
<linearGradient id="paint5_linear_1_466" x1="3.56691" y1="0.0875473" x2="3.66044" y2="12.1034" gradientUnits="userSpaceOnUse">
<stop stop-color="#857D4C"/>
<stop offset="0.0808516" stop-color="#BD9A64"/>
<stop offset="0.510071" stop-color="#FBDE98"/>
<stop offset="0.897799" stop-color="#BD9A64"/>
<stop offset="1" stop-color="#857D4C"/>
</linearGradient>
</defs>
</svg>
