<svg width="145" height="27" viewBox="0 0 145 27" fill="none" xmlns="http://www.w3.org/2000/svg">
<path d="M141.974 7.43903C141.836 6.05411 141.225 4.95264 140.14 4.13464C139.054 3.31665 137.69 2.90765 136.046 2.90765C134.887 2.90765 133.867 3.10607 132.984 3.50292C132.109 3.89977 131.421 4.4505 130.919 5.15512C130.425 5.85163 130.178 6.64533 130.178 7.53622C130.178 8.19224 130.32 8.76727 130.603 9.26131C130.886 9.75535 131.267 10.1805 131.745 10.5369C132.231 10.8852 132.765 11.1848 133.349 11.4359C133.94 11.687 134.535 11.8975 135.134 12.0676L137.758 12.8208C138.552 13.0395 139.346 13.3189 140.14 13.6591C140.933 13.9992 141.658 14.4285 142.314 14.9468C142.978 15.457 143.509 16.0847 143.906 16.8298C144.311 17.5668 144.513 18.4537 144.513 19.4903C144.513 20.8186 144.169 22.0132 143.48 23.0741C142.792 24.1351 141.804 24.9774 140.516 25.601C139.228 26.2166 137.686 26.5243 135.888 26.5243C134.195 26.5243 132.725 26.2449 131.478 25.6861C130.23 25.1191 129.25 24.3376 128.538 23.3414C127.825 22.3452 127.424 21.1911 127.335 19.8791H129.668C129.749 20.8591 130.073 21.6892 130.639 22.3695C131.206 23.0498 131.943 23.5682 132.85 23.9245C133.758 24.2728 134.77 24.4469 135.888 24.4469C137.127 24.4469 138.228 24.2404 139.192 23.8273C140.164 23.4062 140.925 22.8231 141.476 22.078C142.035 21.3248 142.314 20.4501 142.314 19.4539C142.314 18.6116 142.095 17.907 141.658 17.3401C141.221 16.765 140.609 16.2831 139.824 15.8944C139.046 15.5056 138.143 15.1614 137.115 14.8618L134.138 13.9871C132.186 13.4039 130.672 12.5981 129.595 11.5695C128.518 10.5409 127.979 9.22891 127.979 7.63341C127.979 6.29708 128.335 5.12272 129.048 4.11035C129.769 3.08987 130.741 2.29617 131.964 1.72924C133.195 1.15421 134.576 0.866699 136.106 0.866699C137.653 0.866699 139.022 1.15016 140.212 1.7171C141.403 2.28402 142.347 3.06558 143.043 4.06175C143.748 5.04983 144.124 6.17559 144.173 7.43903H141.974Z" fill="url(#paint0_linear_1_476)"/>
<path d="M101.31 26.0991V1.21899H115.743V3.25994H103.582V12.6264H114.978V14.6674H103.582V24.0582H115.986V26.0991H101.31Z" fill="url(#paint1_linear_1_476)"/>
<path d="M87.8537 1.21899V26.0991H85.5819V1.21899H87.8537Z" fill="url(#paint2_linear_1_476)"/>
<path d="M57.1581 26.0991V1.21899H65.1883C66.9539 1.21899 68.4279 1.5389 69.6103 2.17873C70.8009 2.81045 71.6958 3.68919 72.2952 4.81495C72.9026 5.93261 73.2063 7.2163 73.2063 8.66602C73.2063 10.1157 72.9026 11.3954 72.2952 12.5049C71.6958 13.6145 70.8049 14.4811 69.6225 15.1047C68.44 15.7283 66.9741 16.0402 65.2247 16.0402H58.3851V13.9628H65.164C66.4598 13.9628 67.537 13.7481 68.3955 13.3189C69.2621 12.8896 69.906 12.2782 70.3271 11.4845C70.7564 10.6908 70.971 9.75128 70.971 8.66602C70.971 7.58075 70.7564 6.63317 70.3271 5.82327C69.8979 5.00527 69.2499 4.37355 68.3834 3.92811C67.5249 3.48266 66.4396 3.25994 65.1276 3.25994H59.4299V26.0991H57.1581ZM68.1282 14.8739L74.2511 26.0991H71.627L65.5649 14.8739H68.1282Z" fill="url(#paint3_linear_1_476)"/>
<path d="M30.0038 26.0991V1.21899H44.4362V3.25994H32.2756V12.6264H43.6708V14.6674H32.2756V24.0582H44.6792V26.0991H30.0038Z" fill="url(#paint4_linear_1_476)"/>
<path d="M15.1559 7.43891C15.0182 6.05398 14.4067 4.95252 13.3215 4.13452C12.2362 3.31652 10.8715 2.90752 9.22744 2.90752C8.06928 2.90752 7.04881 3.10595 6.16602 3.5028C5.29133 3.89965 4.60291 4.45038 4.10077 5.15499C3.60673 5.85151 3.35971 6.64521 3.35971 7.5361C3.35971 8.19212 3.50145 8.76715 3.78491 9.26119C4.06838 9.75522 4.44903 10.1804 4.92687 10.5368C5.41281 10.885 5.94734 11.1847 6.53047 11.4358C7.1217 11.6868 7.71698 11.8974 8.3163 12.0675L10.9404 12.8207C11.7341 13.0394 12.5278 13.3188 13.3215 13.6589C14.1152 13.9991 14.84 14.4283 15.4961 14.9467C16.1602 15.4569 16.6907 16.0846 17.0875 16.8297C17.4925 17.5667 17.6949 18.4535 17.6949 19.4902C17.6949 20.8184 17.3507 22.0131 16.6623 23.074C15.9739 24.135 14.9858 24.9773 13.6981 25.6009C12.4103 26.2164 10.8675 26.5242 9.06951 26.5242C7.37682 26.5242 5.90685 26.2448 4.6596 25.6859C3.41236 25.119 2.43238 24.3375 1.71967 23.3413C1.00696 22.3451 0.606057 21.191 0.516968 19.879H2.84948C2.93047 20.8589 3.25443 21.6891 3.82136 22.3694C4.38829 23.0497 5.1253 23.5681 6.03238 23.9244C6.93947 24.2727 7.95184 24.4468 9.06951 24.4468C10.3087 24.4468 11.4101 24.2403 12.3739 23.8272C13.3458 23.4061 14.1071 22.823 14.6578 22.0778C15.2166 21.3246 15.4961 20.4499 15.4961 19.4538C15.4961 18.6115 15.2774 17.9069 14.84 17.3399C14.4027 16.7649 13.7912 16.283 13.0056 15.8943C12.2281 15.5055 11.3251 15.1613 10.2965 14.8616L7.32012 13.9869C5.36827 13.4038 3.85375 12.598 2.77659 11.5694C1.69942 10.5408 1.16084 9.22879 1.16084 7.63329C1.16084 6.29695 1.51719 5.1226 2.22991 4.11022C2.95072 3.08975 3.9226 2.29605 5.14554 1.72912C6.37659 1.15409 7.75747 0.866577 9.28818 0.866577C10.8351 0.866577 12.2038 1.15004 13.3944 1.71697C14.5849 2.2839 15.5285 3.06545 16.225 4.06163C16.9296 5.04971 17.3062 6.17547 17.3548 7.43891H15.1559Z" fill="url(#paint5_linear_1_476)"/>
<defs>
<linearGradient id="paint0_linear_1_476" x1="8.11674" y1="0.93022" x2="8.32107" y2="27.181" gradientUnits="userSpaceOnUse">
<stop stop-color="#857D4C"/>
<stop offset="0.0808516" stop-color="#BD9A64"/>
<stop offset="0.510071" stop-color="#FBDE98"/>
<stop offset="0.897799" stop-color="#BD9A64"/>
<stop offset="1" stop-color="#857D4C"/>
</linearGradient>
<linearGradient id="paint1_linear_1_476" x1="8.11664" y1="0.930208" x2="8.32098" y2="27.181" gradientUnits="userSpaceOnUse">
<stop stop-color="#857D4C"/>
<stop offset="0.0808516" stop-color="#BD9A64"/>
<stop offset="0.510071" stop-color="#FBDE98"/>
<stop offset="0.897799" stop-color="#BD9A64"/>
<stop offset="1" stop-color="#857D4C"/>
</linearGradient>
<linearGradient id="paint2_linear_1_476" x1="8.11672" y1="0.930208" x2="8.32106" y2="27.181" gradientUnits="userSpaceOnUse">
<stop stop-color="#857D4C"/>
<stop offset="0.0808516" stop-color="#BD9A64"/>
<stop offset="0.510071" stop-color="#FBDE98"/>
<stop offset="0.897799" stop-color="#BD9A64"/>
<stop offset="1" stop-color="#857D4C"/>
</linearGradient>
<linearGradient id="paint3_linear_1_476" x1="8.11678" y1="0.930208" x2="8.32111" y2="27.181" gradientUnits="userSpaceOnUse">
<stop stop-color="#857D4C"/>
<stop offset="0.0808516" stop-color="#BD9A64"/>
<stop offset="0.510071" stop-color="#FBDE98"/>
<stop offset="0.897799" stop-color="#BD9A64"/>
<stop offset="1" stop-color="#857D4C"/>
</linearGradient>
<linearGradient id="paint4_linear_1_476" x1="8.11672" y1="0.930208" x2="8.32106" y2="27.181" gradientUnits="userSpaceOnUse">
<stop stop-color="#857D4C"/>
<stop offset="0.0808516" stop-color="#BD9A64"/>
<stop offset="0.510071" stop-color="#FBDE98"/>
<stop offset="0.897799" stop-color="#BD9A64"/>
<stop offset="1" stop-color="#857D4C"/>
</linearGradient>
<linearGradient id="paint5_linear_1_476" x1="8.11672" y1="0.930098" x2="8.32105" y2="27.1808" gradientUnits="userSpaceOnUse">
<stop stop-color="#857D4C"/>
<stop offset="0.0808516" stop-color="#BD9A64"/>
<stop offset="0.510071" stop-color="#FBDE98"/>
<stop offset="0.897799" stop-color="#BD9A64"/>
<stop offset="1" stop-color="#857D4C"/>
</linearGradient>
</defs>
</svg>
